<svg width="276" height="56" viewBox="0 0 276 56" fill="none" xmlns="http://www.w3.org/2000/svg">
<path d="M116.377 17.1289C118.824 17.1289 120.989 17.6619 122.871 18.7285C124.753 19.7951 126.196 21.2693 127.2 23.1514C128.235 25.0022 128.753 27.1043 128.753 29.457C128.753 30.2727 128.706 31.1361 128.612 32.0459H108.001C108.158 34.5867 109.021 36.5785 110.589 38.0215C112.189 39.4332 114.118 40.1396 116.377 40.1396C118.228 40.1396 119.765 39.716 120.988 38.8691C122.243 37.9907 123.122 36.8298 123.624 35.3867H128.235C127.545 37.865 126.165 39.8885 124.095 41.457C122.024 42.9942 119.451 43.7627 116.377 43.7627C113.93 43.7627 111.734 43.2141 109.789 42.1162C107.875 41.0182 106.369 39.4648 105.271 37.457C104.174 35.4179 103.625 33.065 103.625 30.3984C103.625 27.7319 104.158 25.3945 105.225 23.3867C106.291 21.3791 107.782 19.842 109.695 18.7754C111.64 17.6775 113.867 17.1289 116.377 17.1289ZM158.969 43.3398H154.64V38.4922C153.793 40.0294 152.538 41.3008 150.875 42.3047C149.212 43.2771 147.267 43.7627 145.04 43.7627C142.75 43.7627 140.664 43.1987 138.781 42.0693C136.93 40.94 135.472 39.3555 134.405 37.3164C133.339 35.2773 132.806 32.9554 132.806 30.3516C132.806 27.7165 133.339 25.4109 134.405 23.4346C135.472 21.4268 136.93 19.8734 138.781 18.7754C140.663 17.6774 142.766 17.1289 145.087 17.1289C147.095 17.1289 148.961 17.5991 150.687 18.54C152.412 19.4498 153.73 20.6582 154.64 22.1641V8.51758H158.969V43.3398ZM227.254 17.1289C229.512 17.1289 231.473 17.6146 233.136 18.5869C234.798 19.5594 236.038 20.7833 236.854 22.2578V17.5518H241.183V43.3398H236.854V38.5391C236.007 40.0449 234.736 41.2998 233.042 42.3037C231.379 43.2762 229.434 43.7627 227.207 43.7627C224.917 43.7627 222.846 43.1987 220.995 42.0693C219.144 40.94 217.686 39.3554 216.619 37.3164C215.553 35.2773 215.02 32.9554 215.02 30.3516C215.02 27.7165 215.553 25.4109 216.619 23.4346C217.686 21.4268 219.144 19.8734 220.995 18.7754C222.877 17.6774 224.964 17.1289 227.254 17.1289ZM81.3496 37.6924L93.3965 10.7764H97.9609V43.3398H93.6787V19.0576L82.8555 43.3398H79.8438L68.9736 19.0107V43.3398H64.6914V10.7764H69.3027L81.3496 37.6924ZM170.488 43.3398H166.206V17.5527H170.488V43.3398ZM209.32 43.3398H205.038V8.51758H209.32V43.3398ZM260.983 17.082C264.121 17.082 266.662 18.0385 268.607 19.9521C270.552 21.8344 271.524 24.5643 271.524 28.1406V43.3398H267.289V28.752C267.289 26.1797 266.646 24.219 265.36 22.8701C264.074 21.4898 262.317 20.7998 260.09 20.7998C257.831 20.7998 256.027 21.5053 254.678 22.917C253.36 24.3287 252.702 26.3841 252.702 29.082V43.3398H248.42V17.5527H252.702V21.2227C253.549 19.9053 254.694 18.8855 256.137 18.1641C257.611 17.4426 259.227 17.0821 260.983 17.082ZM188.375 10.54C192.077 10.5401 194.884 11.4345 196.798 13.2227C198.743 15.0108 199.716 17.3163 199.716 20.1396C199.716 22.869 198.774 25.1433 196.892 26.9629C195.041 28.7509 192.202 29.6454 188.375 29.6455H182.069V43.3389H177.787V10.54H188.375ZM145.887 20.8457C144.287 20.8458 142.828 21.2227 141.511 21.9756C140.193 22.7285 139.143 23.8266 138.358 25.2695C137.574 26.7126 137.182 28.4066 137.182 30.3516C137.182 32.328 137.574 34.0539 138.358 35.5283C139.143 36.9712 140.193 38.0849 141.511 38.8691C142.828 39.622 144.287 39.998 145.887 39.998C147.487 39.998 148.946 39.6221 150.264 38.8691C151.613 38.0849 152.68 36.9714 153.464 35.5283C154.248 34.0539 154.64 32.3435 154.64 30.3984C154.64 28.4536 154.248 26.7594 153.464 25.3164C152.68 23.8733 151.613 22.7754 150.264 22.0225C148.946 21.2382 147.487 20.8457 145.887 20.8457ZM228.101 20.8457C226.501 20.8458 225.042 21.2227 223.725 21.9756C222.407 22.7285 221.357 23.8265 220.572 25.2695C219.788 26.7126 219.396 28.4065 219.396 30.3516C219.396 32.328 219.788 34.0539 220.572 35.5283C221.357 36.9712 222.407 38.0849 223.725 38.8691C225.042 39.622 226.501 39.998 228.101 39.998C229.701 39.998 231.16 39.6221 232.478 38.8691C233.826 38.0849 234.893 36.9713 235.678 35.5283C236.462 34.0539 236.854 32.3435 236.854 30.3984C236.853 28.4536 236.462 26.7594 235.678 25.3164C234.893 23.8734 233.826 22.7754 232.478 22.0225C231.16 21.2382 229.701 20.8457 228.101 20.8457ZM116.188 20.752C114.024 20.752 112.173 21.442 110.636 22.8223C109.13 24.2026 108.267 26.1166 108.048 28.5635H124.33C124.33 26.9322 123.969 25.5357 123.247 24.375C122.526 23.1832 121.538 22.2894 120.283 21.6934C119.06 21.0659 117.694 20.752 116.188 20.752ZM182.069 26.1162H188.375C190.759 26.1161 192.515 25.5984 193.645 24.5635C194.774 23.5282 195.339 22.0533 195.339 20.1396C195.339 16.0929 193.018 14.0695 188.375 14.0693H182.069V26.1162ZM168.418 7.5293C169.202 7.52939 169.86 7.81165 170.394 8.37598C170.958 8.94067 171.241 9.6316 171.241 10.4473C171.241 11.2627 170.958 11.953 170.394 12.5176C169.86 13.082 169.202 13.3642 168.418 13.3643C167.602 13.3643 166.911 13.0823 166.347 12.5176C165.782 11.953 165.5 11.2627 165.5 10.4473C165.5 9.6316 165.782 8.94067 166.347 8.37598C166.911 7.81129 167.602 7.5293 168.418 7.5293Z" fill="white"/>
<path d="M37.062 37.6313C38.7011 37.6315 40.0295 38.96 40.0298 40.5991V44.4946C40.0297 48.8661 36.4862 52.4095 32.1147 52.4097H28.1567C23.7851 52.4097 20.2408 48.8663 20.2407 44.4946V40.5991C20.241 38.9599 21.5702 37.6313 23.2095 37.6313H37.062ZM46.894 17.8413C51.2657 17.8414 54.8091 21.3856 54.8091 25.7573V29.7153C54.809 34.0869 51.2656 37.6312 46.894 37.6313H42.9985C41.3594 37.6311 40.0308 36.3018 40.0308 34.6626V20.8101C40.0308 19.1708 41.3593 17.8415 42.9985 17.8413H46.894ZM17.2095 17.8413C18.8489 17.8413 20.1782 19.1707 20.1782 20.8101V34.6626C20.1781 36.3019 18.8488 37.6304 17.2095 37.6304H13.3149C8.94332 37.6304 5.39913 34.0869 5.39893 29.7153V25.7573C5.39893 21.3856 8.94319 17.8413 13.3149 17.8413H17.2095ZM32.1147 2.99951C36.4864 2.99964 40.0298 6.54385 40.0298 10.9155V14.8101C40.0298 16.4494 38.7014 17.7787 37.062 17.7788H23.2095C21.5701 17.7788 20.2407 16.4495 20.2407 14.8101V10.9155C20.2407 6.54377 23.785 2.99951 28.1567 2.99951H32.1147Z" fill="white"/>
</svg>
