<svg width="392" height="80" viewBox="0 0 392 80" fill="none" xmlns="http://www.w3.org/2000/svg">
<path d="M371.124 25.1177C375.606 25.1177 379.236 26.4846 382.014 29.2184C384.793 31.9074 386.182 35.8065 386.182 40.9156V62.6294H380.132V41.7895C380.132 38.1146 379.213 35.3135 377.376 33.3864C375.538 31.4144 373.029 30.4285 369.847 30.4285C366.62 30.4285 364.043 31.4369 362.116 33.4536C360.233 35.4704 359.292 38.4059 359.292 42.2601V62.6294H353.175V25.7899H359.292V31.0335C360.502 29.1512 362.138 27.6946 364.2 26.6639C366.306 25.6331 368.614 25.1177 371.124 25.1177Z" fill="white"/>
<path d="M305.459 44.0749C305.459 40.3103 306.221 37.0162 307.745 34.1928C309.268 31.3245 311.352 29.106 313.997 27.5375C316.686 25.9689 319.666 25.1846 322.938 25.1846C326.164 25.1846 328.965 25.8792 331.341 27.2686C333.716 28.6579 335.486 30.4057 336.652 32.5121V25.7896H342.836V62.629H336.652V55.7721C335.441 57.9233 333.626 59.716 331.206 61.1501C328.831 62.5394 326.052 63.2341 322.87 63.2341C319.599 63.2341 316.641 62.4274 313.997 60.814C311.352 59.2006 309.268 56.9373 307.745 54.0242C306.221 51.1111 305.459 47.7947 305.459 44.0749ZM336.652 44.1421C336.652 41.3635 336.091 38.9433 334.971 36.8818C333.85 34.8202 332.327 33.2516 330.4 32.176C328.517 31.0556 326.433 30.4954 324.148 30.4954C321.862 30.4954 319.778 31.0332 317.896 32.1088C316.013 33.1844 314.512 34.753 313.392 36.8145C312.271 38.8761 311.711 41.2962 311.711 44.0749C311.711 46.8983 312.271 49.3633 313.392 51.4697C314.512 53.5312 316.013 55.1222 317.896 56.2426C319.778 57.3182 321.862 57.8561 324.148 57.8561C326.433 57.8561 328.517 57.3182 330.4 56.2426C332.327 55.1222 333.85 53.5312 334.971 51.4697C336.091 49.3633 336.652 46.9207 336.652 44.1421Z" fill="white"/>
<path d="M297.318 12.8823V62.629H291.201V12.8823H297.318Z" fill="white"/>
<path d="M283.597 29.4869C283.597 33.386 282.253 36.6352 279.563 39.2346C276.919 41.7891 272.863 43.0664 267.396 43.0664H258.388V62.629H252.27V15.7729H267.396C272.684 15.7729 276.695 17.0502 279.429 19.6048C282.208 22.1594 283.597 25.4534 283.597 29.4869ZM267.396 38.0245C270.802 38.0245 273.312 37.285 274.925 35.8061C276.538 34.3271 277.345 32.2207 277.345 29.4869C277.345 23.7055 274.029 20.8148 267.396 20.8148H258.388V38.0245H267.396Z" fill="white"/>
<path d="M238.886 19.8066C237.721 19.8066 236.735 19.4033 235.928 18.5966C235.121 17.7899 234.718 16.8039 234.718 15.6387C234.718 14.4734 235.121 13.4875 235.928 12.6808C236.735 11.8741 237.721 11.4707 238.886 11.4707C240.006 11.4707 240.947 11.8741 241.709 12.6808C242.516 13.4875 242.919 14.4734 242.919 15.6387C242.919 16.8039 242.516 17.7899 241.709 18.5966C240.947 19.4033 240.006 19.8066 238.886 19.8066ZM241.844 25.7897V62.6291H235.726V25.7897H241.844Z" fill="white"/>
<path d="M188.01 44.0749C188.01 40.3102 188.772 37.0162 190.296 34.1927C191.82 31.3245 193.904 29.106 196.548 27.5374C199.237 25.9688 202.24 25.1845 205.556 25.1845C208.424 25.1845 211.091 25.8568 213.556 27.2013C216.021 28.501 217.903 30.2264 219.203 32.3777V12.8823H225.388V62.629H219.203V55.7048C217.993 57.9009 216.2 59.7159 213.825 61.1501C211.449 62.5394 208.671 63.2341 205.489 63.2341C202.217 63.2341 199.237 62.4274 196.548 60.814C193.904 59.2005 191.82 56.9373 190.296 54.0242C188.772 51.1111 188.01 47.7947 188.01 44.0749ZM219.203 44.1421C219.203 41.3634 218.643 38.9433 217.522 36.8817C216.402 34.8202 214.878 33.2516 212.951 32.176C211.069 31.0556 208.985 30.4953 206.699 30.4953C204.413 30.4953 202.329 31.0332 200.447 32.1088C198.565 33.1844 197.063 34.7529 195.943 36.8145C194.822 38.8761 194.262 41.2962 194.262 44.0749C194.262 46.8983 194.822 49.3632 195.943 51.4696C197.063 53.5312 198.565 55.1222 200.447 56.2426C202.329 57.3182 204.413 57.856 206.699 57.856C208.985 57.856 211.069 57.3182 212.951 56.2426C214.878 55.1222 216.402 53.5312 217.522 51.4696C218.643 49.3632 219.203 46.9207 219.203 44.1421Z" fill="white"/>
<path d="M182.221 42.7976C182.221 43.9628 182.154 45.1953 182.019 46.495H152.575C152.799 50.1251 154.031 52.971 156.272 55.0326C158.558 57.0493 161.314 58.0577 164.541 58.0577C167.185 58.0577 169.381 57.4527 171.129 56.2426C172.922 54.9878 174.176 53.3295 174.893 51.268H181.482C180.496 54.8085 178.524 57.6992 175.566 59.94C172.608 62.1361 168.933 63.2341 164.541 63.2341C161.045 63.2341 157.908 62.4498 155.129 60.8812C152.395 59.3126 150.244 57.0942 148.676 54.2259C147.107 51.3128 146.323 47.9515 146.323 44.1421C146.323 40.3327 147.085 36.9938 148.608 34.1255C150.132 31.2573 152.261 29.0612 154.995 27.5375C157.773 25.9689 160.955 25.1846 164.541 25.1846C168.037 25.1846 171.129 25.9465 173.818 27.4702C176.507 28.994 178.568 31.1004 180.003 33.7894C181.482 36.4336 182.221 39.4363 182.221 42.7976ZM175.902 41.5203C175.902 39.1898 175.386 37.1955 174.356 35.5373C173.325 33.8342 171.913 32.5569 170.121 31.7054C168.373 30.8091 166.423 30.3609 164.272 30.3609C161.18 30.3609 158.535 31.3469 156.339 33.3188C154.188 35.2908 152.956 38.0246 152.642 41.5203H175.902Z" fill="white"/>
<path d="M138.233 16.1089V62.6288H132.115V27.9405L116.654 62.6288H112.351L96.8221 27.8733V62.6288H90.7046V16.1089H97.2927L114.502 54.5617L131.712 16.1089H138.233Z" fill="white"/>
<path fill-rule="evenodd" clip-rule="evenodd" d="M27.113 30.4437C27.113 28.1017 25.2144 26.2031 22.8724 26.2031L17.3083 26.2031C11.0629 26.2031 6 31.266 6 37.5114L6 43.1656C6 49.411 11.0629 54.4739 17.3083 54.4739H22.8724C25.2144 54.4739 27.113 52.5753 27.113 50.2332V30.4437Z" fill="white"/>
<path fill-rule="evenodd" clip-rule="evenodd" d="M55.4744 50.2335C55.4744 52.5755 57.373 54.4741 59.715 54.4741L65.2791 54.4741C71.5245 54.4741 76.5874 49.4112 76.5874 43.1658L76.5874 37.5117C76.5874 31.2663 71.5245 26.2034 65.2791 26.2034L59.715 26.2034C57.373 26.2034 55.4744 28.102 55.4744 30.444L55.4744 50.2335Z" fill="white"/>
<path fill-rule="evenodd" clip-rule="evenodd" d="M51.2335 26.113C53.5755 26.113 55.4741 24.2144 55.4741 21.8724L55.4741 16.3083C55.4741 10.0629 50.4112 5 44.1658 5L38.5117 5C32.2663 5 27.2034 10.0629 27.2034 16.3083L27.2034 21.8724C27.2034 24.2144 29.102 26.113 31.444 26.113L51.2335 26.113Z" fill="white"/>
<path fill-rule="evenodd" clip-rule="evenodd" d="M31.4437 54.4739C29.1017 54.4739 27.2031 56.3725 27.2031 58.7145L27.2031 64.2786C27.2031 70.524 32.266 75.5869 38.5114 75.5869L44.1656 75.5869C50.411 75.5869 55.4739 70.524 55.4739 64.2786L55.4739 58.7145C55.4739 56.3725 53.5753 54.4739 51.2332 54.4739L31.4437 54.4739Z" fill="white"/>
</svg>
