<svg width="276" height="56" viewBox="0 0 276 56" fill="none" xmlns="http://www.w3.org/2000/svg">
<path d="M260.984 17.082C264.121 17.082 266.662 18.0389 268.607 19.9525C270.552 21.8348 271.525 24.5642 271.525 28.1405V43.3401H267.289V28.7523C267.289 26.1798 266.646 24.2191 265.36 22.8701C264.074 21.4897 262.317 20.7996 260.09 20.7996C257.831 20.7996 256.027 21.5054 254.678 22.9172C253.36 24.3289 252.702 26.3837 252.702 29.0817V43.3401H248.419V17.5526H252.702V21.2231C253.549 19.9055 254.694 18.8859 256.137 18.1644C257.611 17.4428 259.227 17.082 260.984 17.082Z" fill="white"/>
<path d="M215.019 30.352C215.019 27.7168 215.552 25.411 216.619 23.4346C217.686 21.4268 219.144 19.8739 220.995 18.7759C222.878 17.6779 224.964 17.1289 227.254 17.1289C229.513 17.1289 231.473 17.6152 233.136 18.5877C234.799 19.5602 236.038 20.7837 236.854 22.2582V17.5524H241.183V43.3399H236.854V38.54C236.007 40.0459 234.736 41.3007 233.042 42.3046C231.379 43.2771 229.434 43.7634 227.207 43.7634C224.917 43.7634 222.846 43.1987 220.995 42.0693C219.144 40.94 217.686 39.3557 216.619 37.3165C215.552 35.2774 215.019 32.9559 215.019 30.352ZM236.854 30.3991C236.854 28.4541 236.462 26.76 235.677 25.3169C234.893 23.8738 233.826 22.7758 232.477 22.0229C231.16 21.2386 229.701 20.8464 228.101 20.8464C226.501 20.8464 225.042 21.2229 223.725 21.9758C222.407 22.7287 221.356 23.8267 220.572 25.2698C219.788 26.7129 219.395 28.407 219.395 30.352C219.395 32.3285 219.788 34.0539 220.572 35.5284C221.356 36.9715 222.407 38.0851 223.725 38.8694C225.042 39.6224 226.501 39.9988 228.101 39.9988C229.701 39.9988 231.16 39.6224 232.477 38.8694C233.826 38.0851 234.893 36.9715 235.677 35.5284C236.462 34.0539 236.854 32.3441 236.854 30.3991Z" fill="white"/>
<path d="M209.32 8.51709V43.3396H205.038V8.51709H209.32Z" fill="white"/>
<path d="M199.715 20.1402C199.715 22.8696 198.774 25.144 196.892 26.9636C195.041 28.7518 192.202 29.6458 188.375 29.6458H182.069V43.3396H177.787V10.5405H188.375C192.076 10.5405 194.884 11.4346 196.798 13.2228C198.743 15.011 199.715 17.3168 199.715 20.1402ZM188.375 26.1165C190.759 26.1165 192.516 25.5989 193.645 24.5636C194.774 23.5284 195.339 22.0539 195.339 20.1402C195.339 16.0933 193.018 14.0698 188.375 14.0698H182.069V26.1165H188.375Z" fill="white"/>
<path d="M168.418 13.3644C167.602 13.3644 166.912 13.0821 166.347 12.5174C165.782 11.9527 165.5 11.2625 165.5 10.4469C165.5 9.6312 165.782 8.94102 166.347 8.37633C166.912 7.81164 167.602 7.5293 168.418 7.5293C169.202 7.5293 169.861 7.81164 170.394 8.37633C170.959 8.94102 171.241 9.6312 171.241 10.4469C171.241 11.2625 170.959 11.9527 170.394 12.5174C169.861 13.0821 169.202 13.3644 168.418 13.3644ZM170.488 17.5525V43.34H166.206V17.5525H170.488Z" fill="white"/>
<path d="M132.805 30.3517C132.805 27.7165 133.338 25.4107 134.405 23.4343C135.472 21.4265 136.931 19.8736 138.781 18.7756C140.664 17.6776 142.766 17.1286 145.087 17.1286C147.095 17.1286 148.962 17.5992 150.687 18.5403C152.412 19.4501 153.73 20.6579 154.64 22.1637V8.51709H158.969V43.3396H154.64V38.4927C153.793 40.0299 152.538 41.3004 150.875 42.3043C149.213 43.2768 147.267 43.7631 145.04 43.7631C142.75 43.7631 140.664 43.1984 138.781 42.069C136.931 40.9397 135.472 39.3554 134.405 37.3162C133.338 35.2771 132.805 32.9556 132.805 30.3517ZM154.64 30.3988C154.64 28.4538 154.248 26.7597 153.463 25.3166C152.679 23.8735 151.612 22.7755 150.263 22.0226C148.946 21.2383 147.487 20.8461 145.887 20.8461C144.287 20.8461 142.828 21.2226 141.511 21.9755C140.193 22.7284 139.142 23.8264 138.358 25.2695C137.574 26.7126 137.182 28.4067 137.182 30.3517C137.182 32.3281 137.574 34.0536 138.358 35.5281C139.142 36.9711 140.193 38.0848 141.511 38.8691C142.828 39.622 144.287 39.9985 145.887 39.9985C147.487 39.9985 148.946 39.622 150.263 38.8691C151.612 38.0848 152.679 36.9711 153.463 35.5281C154.248 34.0536 154.64 32.3438 154.64 30.3988Z" fill="white"/>
<path d="M128.753 29.458C128.753 30.2736 128.706 31.1363 128.612 32.0461H108.001C108.158 34.5872 109.02 36.5793 110.589 38.0224C112.189 39.4341 114.118 40.14 116.377 40.14C118.228 40.14 119.765 39.7165 120.989 38.8694C122.244 37.991 123.122 36.8303 123.624 35.3872H128.236C127.545 37.8655 126.165 39.889 124.094 41.4576C122.024 42.9948 119.451 43.7634 116.377 43.7634C113.93 43.7634 111.734 43.2144 109.789 42.1164C107.875 41.0184 106.37 39.4655 105.272 37.4577C104.174 35.4186 103.625 33.0657 103.625 30.3991C103.625 27.7325 104.158 25.3953 105.224 23.3875C106.291 21.3798 107.781 19.8426 109.695 18.7759C111.64 17.6779 113.867 17.1289 116.377 17.1289C118.824 17.1289 120.989 17.6622 122.871 18.7289C124.753 19.7955 126.196 21.27 127.2 23.1523C128.236 25.0032 128.753 27.1051 128.753 29.458ZM124.33 28.5639C124.33 26.9325 123.969 25.5365 123.247 24.3758C122.526 23.1836 121.538 22.2895 120.283 21.6935C119.059 21.066 117.695 20.7523 116.189 20.7523C114.024 20.7523 112.173 21.4425 110.636 22.8229C109.13 24.2032 108.268 26.1169 108.048 28.5639H124.33Z" fill="white"/>
<path d="M97.961 10.7759V43.3396H93.6788V19.058L82.8556 43.3396H79.8439L68.9736 19.0109V43.3396H64.6914V10.7759H69.303L81.3497 37.6927L93.3964 10.7759H97.961Z" fill="white"/>
<path fill-rule="evenodd" clip-rule="evenodd" d="M20.1779 20.8102C20.1779 19.1708 18.8489 17.8418 17.2095 17.8418L13.3147 17.8418C8.94293 17.8418 5.39893 21.3858 5.39893 25.7576L5.39893 29.7154C5.39893 34.0872 8.94293 37.6312 13.3147 37.6312H17.2095C18.8489 37.6312 20.1779 36.3022 20.1779 34.6628V20.8102Z" fill="white"/>
<path fill-rule="evenodd" clip-rule="evenodd" d="M40.0306 34.6629C40.0306 36.3023 41.3596 37.6313 42.999 37.6313L46.8938 37.6313C51.2656 37.6313 54.8096 34.0873 54.8096 29.7156L54.8096 25.7577C54.8096 21.386 51.2656 17.842 46.8938 17.842L42.999 17.842C41.3596 17.842 40.0306 19.171 40.0306 20.8104L40.0306 34.6629Z" fill="white"/>
<path fill-rule="evenodd" clip-rule="evenodd" d="M37.0619 17.779C38.7013 17.779 40.0303 16.45 40.0303 14.8106L40.0303 10.9158C40.0303 6.54401 36.4863 3 32.1145 3L28.1566 3C23.7849 3 20.2409 6.54401 20.2409 10.9158L20.2409 14.8106C20.2409 16.45 21.5699 17.779 23.2093 17.779L37.0619 17.779Z" fill="white"/>
<path fill-rule="evenodd" clip-rule="evenodd" d="M23.2091 37.6312C21.5697 37.6312 20.2407 38.9602 20.2407 40.5996L20.2407 44.4944C20.2407 48.8661 23.7847 52.4102 28.1565 52.4102L32.1144 52.4102C36.4861 52.4102 40.0301 48.8661 40.0301 44.4944L40.0301 40.5996C40.0301 38.9602 38.7011 37.6312 37.0617 37.6312L23.2091 37.6312Z" fill="white"/>
</svg>
