<svg width="156" height="32" viewBox="0 0 156 32" fill="none" xmlns="http://www.w3.org/2000/svg">
<path d="M65.4143 9.95607C66.8125 9.9561 68.0496 10.2606 69.1252 10.8701C70.2007 11.4796 71.0249 12.3226 71.5986 13.3982C72.1901 14.4559 72.4861 15.6568 72.4861 17.0013C72.4861 17.4673 72.4594 17.9603 72.4056 18.4802H60.6276C60.7173 19.9321 61.2103 21.0703 62.1065 21.8949C63.0208 22.7016 64.1236 23.1051 65.4143 23.1051C66.4719 23.1051 67.3503 22.8633 68.0494 22.3793C68.7664 21.8774 69.268 21.214 69.5549 20.3895H72.1908C71.7964 21.8056 71.0074 22.9619 69.8244 23.8582C68.6413 24.7366 67.171 25.1761 65.4143 25.1761C64.016 25.1761 62.761 24.8622 61.6495 24.2348C60.556 23.6073 59.6957 22.7196 59.0683 21.5723C58.4409 20.4071 58.1269 19.0625 58.1269 17.5388C58.1269 16.0152 58.4316 14.6798 59.041 13.5326C59.6504 12.3853 60.5022 11.507 61.5956 10.8975C62.7071 10.27 63.9802 9.95607 65.4143 9.95607ZM89.7522 24.934H87.278V22.1645C86.794 23.0427 86.0772 23.769 85.1273 24.3426C84.1772 24.8983 83.0656 25.1761 81.793 25.1761C80.4843 25.1761 79.2921 24.8528 78.2164 24.2074C77.1588 23.5621 76.3252 22.657 75.7157 21.4918C75.1062 20.3266 74.8017 19.0001 74.8017 17.5122C74.8017 16.0064 75.1062 14.6885 75.7157 13.5591C76.3252 12.4119 77.1588 11.5249 78.2164 10.8975C79.292 10.27 80.493 9.95608 81.8195 9.95607C82.9668 9.95607 84.0335 10.2246 85.0195 10.7623C86.0054 11.2822 86.7581 11.9729 87.278 12.8334V5.03505H89.7522V24.934ZM128.77 9.95607C130.061 9.95607 131.182 10.2339 132.132 10.7896C133.082 11.3454 133.79 12.0448 134.256 12.8873V10.1983H136.73V24.934H134.256V22.191C133.772 23.0515 133.046 23.7689 132.078 24.3426C131.128 24.8983 130.016 25.1761 128.744 25.1761C127.435 25.1761 126.252 24.8528 125.194 24.2074C124.136 23.5621 123.303 22.6569 122.693 21.4918C122.084 20.3266 121.779 19 121.779 17.5122C121.779 16.0064 122.084 14.6885 122.693 13.5591C123.303 12.412 124.136 11.5249 125.194 10.8975C126.269 10.27 127.462 9.95609 128.77 9.95607ZM45.3998 21.7067L52.2832 6.32566H54.8918V24.934H52.445V11.0584L46.2599 24.934H44.5388L38.3272 11.0311V24.934H35.8804V6.32566H38.5155L45.3998 21.7067ZM96.3341 24.934H93.8873V10.1975H96.3341V24.934ZM106.554 6.19128C108.67 6.19128 110.275 6.70224 111.368 7.72407C112.48 8.74588 113.035 10.0638 113.035 11.6771C113.035 13.2366 112.498 14.5366 111.422 15.5763C110.365 16.5981 108.741 17.1091 106.554 17.1091H102.951V24.934H100.504V6.19128H106.554ZM118.523 24.934H116.076V5.03505H118.523V24.934ZM148.045 9.92951C149.838 9.92957 151.29 10.4759 152.401 11.5693C153.513 12.6449 154.068 14.2047 154.068 16.2482V24.934H151.648V16.5982C151.648 15.1282 151.281 14.0073 150.546 13.2365C149.811 12.4478 148.807 12.0538 147.534 12.0537C146.243 12.0537 145.212 12.4571 144.441 13.2638C143.688 14.0705 143.312 15.2449 143.312 16.7864V24.934H140.865V10.1983H143.312V12.2951C143.796 11.5424 144.45 10.9597 145.275 10.5475C146.117 10.1352 147.041 9.92951 148.045 9.92951ZM82.2765 12.0803C81.3623 12.0803 80.5287 12.2953 79.7758 12.7256C79.0229 13.1558 78.4224 13.7837 77.9743 14.6083C77.5262 15.4329 77.3024 16.4009 77.3024 17.5122C77.3024 18.6415 77.5261 19.6274 77.9743 20.47C78.4224 21.2946 79.0229 21.9311 79.7758 22.3793C80.5287 22.8095 81.3623 23.0246 82.2765 23.0246C83.1907 23.0246 84.0244 22.8095 84.7773 22.3793C85.5481 21.9311 86.158 21.2946 86.6062 20.47C87.0543 19.6274 87.278 18.6502 87.278 17.5388C87.278 16.4274 87.0543 15.4595 86.6062 14.6349C86.158 13.8103 85.5481 13.1831 84.7773 12.7529C84.0244 12.3047 83.1908 12.0803 82.2765 12.0803ZM129.255 12.0803C128.341 12.0803 127.507 12.2954 126.754 12.7256C126.001 13.1558 125.401 13.7837 124.952 14.6083C124.504 15.433 124.28 16.4008 124.28 17.5122C124.28 18.6416 124.504 19.6274 124.952 20.47C125.401 21.2946 126.001 21.9312 126.754 22.3793C127.507 22.8095 128.341 23.0246 129.255 23.0246C130.169 23.0246 131.003 22.8095 131.755 22.3793C132.526 21.9312 133.135 21.2945 133.584 20.47C134.032 19.6274 134.256 18.6502 134.256 17.5388C134.256 16.4274 134.032 15.4595 133.584 14.6349C133.135 13.8104 132.526 13.1831 131.755 12.7529C131.003 12.3048 130.169 12.0803 129.255 12.0803ZM65.3065 12.0263C64.0696 12.0264 63.0122 12.4212 62.1339 13.2099C61.2734 13.9987 60.7797 15.0921 60.6542 16.4903H69.9588C69.9588 15.5582 69.7523 14.7607 69.34 14.0974C68.9278 13.4163 68.3632 12.9052 67.6463 12.5646C66.9472 12.2061 66.167 12.0263 65.3065 12.0263ZM102.951 15.0919H106.554C107.917 15.0919 108.921 14.796 109.567 14.2044C110.212 13.6129 110.535 12.7704 110.535 11.6771C110.535 9.36458 109.207 8.20766 106.554 8.20766H102.951V15.0919ZM95.1513 4.47021C95.5994 4.4703 95.9756 4.63199 96.2802 4.95458C96.6028 5.27724 96.7646 5.67134 96.7646 6.13738C96.7646 6.60347 96.6029 6.99827 96.2802 7.32095C95.9756 7.64337 95.5992 7.80445 95.1513 7.80454C94.6853 7.80454 94.2904 7.64352 93.9678 7.32095C93.6451 6.99827 93.4842 6.60347 93.4842 6.13738C93.4842 5.67139 93.6452 5.27722 93.9678 4.95458C94.2904 4.6319 94.6852 4.47021 95.1513 4.47021Z" fill="#111827"/>
<path d="M20.0938 21.6722C21.0306 21.6722 21.7898 22.4314 21.7898 23.3683V25.594C21.7898 28.0923 19.7646 30.1175 17.2664 30.1175H15.0047C12.5065 30.1174 10.4813 28.0923 10.4812 25.594V23.3683C10.4812 22.4315 11.2406 21.6723 12.1773 21.6722H20.0938ZM8.74922 10.3636C9.68599 10.3636 10.4452 11.1229 10.4453 12.0597V19.9761C10.4453 20.9129 9.68605 21.6722 8.74922 21.6722H6.52344C4.02521 21.6721 2 19.647 2 17.1487V14.887C2.00004 12.3888 4.02523 10.3636 6.52344 10.3636H8.74922ZM25.7109 10.3636C28.2092 10.3636 30.2344 12.3888 30.2344 14.887V17.1487C30.2343 19.6469 28.2091 21.6721 25.7109 21.6722H23.4852C22.5484 21.6722 21.7892 20.9128 21.7891 19.9761V12.0597C21.7891 11.1228 22.5483 10.3636 23.4852 10.3636H25.7109ZM17.2656 1.88232C19.7638 1.88236 21.789 3.90755 21.7891 6.40576V8.63154C21.7891 9.56832 21.0297 10.3275 20.093 10.3276H12.1766C11.2397 10.3276 10.4805 9.56838 10.4805 8.63154V6.40576C10.4805 3.90753 12.5057 1.88232 15.0039 1.88232H17.2656Z" fill="#3646AB"/>
</svg>
