<svg width="120" height="120" viewBox="0 0 120 120" fill="none" xmlns="http://www.w3.org/2000/svg">
<rect width="120" height="120" rx="24" fill="#E0E3F5"/>
<path d="M73.5187 79.2859C76.7038 79.2861 79.2859 81.868 79.2859 85.0531V92.6203C79.2859 101.114 72.4001 108 63.9062 108H56.2164C47.7225 108 40.8367 101.114 40.8367 92.6203V85.0531C40.8367 81.868 43.4188 79.286 46.6039 79.2859H73.5187ZM34.9469 40.8367C38.132 40.8367 40.714 43.4188 40.7141 46.6039V73.5187C40.7139 76.7038 38.132 79.2859 34.9469 79.2859H27.3797C18.8858 79.2859 12.0001 72.4001 12 63.9062V56.2164C12 47.7225 18.8858 40.8367 27.3797 40.8367H34.9469ZM92.6203 40.8367C101.114 40.8367 108 47.7225 108 56.2164V63.9062C108 72.4002 101.114 79.2859 92.6203 79.2859H85.0531C81.868 79.2859 79.286 76.7039 79.2859 73.5187V46.6039C79.2862 43.4189 81.868 40.8367 85.0531 40.8367H92.6203ZM63.9062 12C72.4002 12 79.2859 18.8858 79.2859 27.3797V34.9469C79.2859 38.132 76.7039 40.714 73.5187 40.7141H46.6039C43.4189 40.7139 40.8367 38.132 40.8367 34.9469V27.3797C40.8367 18.8858 47.7225 12.0001 56.2164 12H63.9062Z" fill="#3646AB"/>
</svg>
