<svg width="196" height="40" viewBox="0 0 196 40" fill="none" xmlns="http://www.w3.org/2000/svg">
<path d="M185.559 12.4116C187.8 12.4116 189.615 13.0951 191.004 14.462C192.394 15.8065 193.088 17.7561 193.088 20.3107V31.1677H190.063V20.7477C190.063 18.9101 189.604 17.5096 188.685 16.546C187.766 15.56 186.512 15.0671 184.921 15.0671C183.307 15.0671 182.019 15.5712 181.055 16.5796C180.114 17.588 179.643 19.0558 179.643 20.9829V31.1677H176.584V12.7478H179.643V15.3696C180.248 14.4284 181.066 13.7001 182.097 13.1847C183.15 12.6693 184.304 12.4116 185.559 12.4116Z" fill="#111827"/>
<path d="M152.727 21.8906C152.727 20.0082 153.108 18.3612 153.869 16.9495C154.631 15.5153 155.673 14.4061 156.995 13.6218C158.34 12.8375 159.83 12.4453 161.466 12.4453C163.079 12.4453 164.48 12.7926 165.668 13.4873C166.855 14.182 167.74 15.0559 168.323 16.1091V12.7478H171.415V31.1678H168.323V27.7392C167.718 28.8149 166.81 29.7112 165.6 30.4283C164.413 31.123 163.023 31.4703 161.432 31.4703C159.797 31.4703 158.318 31.0669 156.995 30.2602C155.673 29.4535 154.631 28.3219 153.869 26.8653C153.108 25.4087 152.727 23.7505 152.727 21.8906ZM168.323 21.9242C168.323 20.5349 168.043 19.3248 167.483 18.294C166.922 17.2632 166.161 16.4789 165.197 15.9411C164.256 15.3809 163.214 15.1007 162.071 15.1007C160.928 15.1007 159.886 15.3696 158.945 15.9075C158.004 16.4453 157.253 17.2296 156.693 18.2604C156.133 19.2912 155.853 20.5012 155.853 21.8906C155.853 23.3023 156.133 24.5348 156.693 25.588C157.253 26.6188 158.004 27.4143 158.945 27.9745C159.886 28.5123 160.928 28.7813 162.071 28.7813C163.214 28.7813 164.256 28.5123 165.197 27.9745C166.161 27.4143 166.922 26.6188 167.483 25.588C168.043 24.5348 168.323 23.3135 168.323 21.9242Z" fill="#111827"/>
<path d="M148.656 6.29395V31.1677H145.598V6.29395H148.656Z" fill="#111827"/>
<path d="M141.797 14.5964C141.797 16.5459 141.124 18.1706 139.78 19.4703C138.458 20.7476 136.43 21.3862 133.696 21.3862H129.192V31.1677H126.133V7.73926H133.696C136.34 7.73926 138.346 8.37791 139.713 9.65521C141.102 10.9325 141.797 12.5796 141.797 14.5964ZM133.696 18.8652C135.399 18.8652 136.654 18.4955 137.46 17.756C138.267 17.0165 138.671 15.9633 138.671 14.5964C138.671 11.7056 137.012 10.2603 133.696 10.2603H129.192V18.8652H133.696Z" fill="#111827"/>
<path d="M119.441 9.75593C118.858 9.75593 118.365 9.55425 117.962 9.1509C117.559 8.74754 117.357 8.25454 117.357 7.67191C117.357 7.08928 117.559 6.59629 117.962 6.19293C118.365 5.78957 118.858 5.58789 119.441 5.58789C120.001 5.58789 120.472 5.78957 120.853 6.19293C121.256 6.59629 121.458 7.08928 121.458 7.67191C121.458 8.25454 121.256 8.74754 120.853 9.1509C120.472 9.55425 120.001 9.75593 119.441 9.75593ZM120.92 12.7475V31.1676H117.861V12.7475H120.92Z" fill="#111827"/>
<path d="M94.0034 21.8905C94.0034 20.0082 94.3844 18.3611 95.1463 16.9493C95.9082 15.5152 96.9502 14.4059 98.2723 13.6216C99.6168 12.8373 101.118 12.4452 102.776 12.4452C104.211 12.4452 105.544 12.7813 106.776 13.4536C108.009 14.1034 108.95 14.9662 109.6 16.0418V6.29395H112.692V31.1677H109.6V27.7056C108.995 28.8036 108.099 29.7112 106.911 30.4283C105.723 31.1229 104.334 31.4703 102.743 31.4703C101.107 31.4703 99.6168 31.0669 98.2723 30.2602C96.9502 29.4535 95.9082 28.3218 95.1463 26.8653C94.3844 25.4087 94.0034 23.7504 94.0034 21.8905ZM109.6 21.9241C109.6 20.5348 109.32 19.3247 108.76 18.2939C108.199 17.2631 107.438 16.4788 106.474 15.9409C105.533 15.3807 104.491 15.1006 103.348 15.1006C102.205 15.1006 101.163 15.3695 100.222 15.9073C99.2807 16.4451 98.53 17.2295 97.9698 18.2603C97.4096 19.2911 97.1295 20.5011 97.1295 21.8905C97.1295 23.3022 97.4096 24.5347 97.9698 25.5879C98.53 26.6188 99.2807 27.4143 100.222 27.9745C101.163 28.5123 102.205 28.7812 103.348 28.7812C104.491 28.7812 105.533 28.5123 106.474 27.9745C107.438 27.4143 108.199 26.6188 108.76 25.5879C109.32 24.5347 109.6 23.3135 109.6 21.9241Z" fill="#111827"/>
<path d="M91.1095 21.2519C91.1095 21.8346 91.0759 22.4508 91.0087 23.1006H76.2862C76.3982 24.9158 77.0145 26.3387 78.1349 27.3695C79.2777 28.3779 80.6559 28.8821 82.2693 28.8821C83.5914 28.8821 84.6894 28.5796 85.5634 27.9745C86.4597 27.3471 87.0872 26.518 87.4457 25.4872H90.7398C90.2468 27.2575 89.2608 28.7028 87.7818 29.8233C86.3029 30.9213 84.4653 31.4703 82.2693 31.4703C80.5214 31.4703 78.9528 31.0781 77.5635 30.2938C76.1965 29.5095 75.1209 28.4003 74.3366 26.9661C73.5523 25.5096 73.1602 23.8289 73.1602 21.9242C73.1602 20.0195 73.5411 18.35 74.303 16.9158C75.0649 15.4817 76.1293 14.3837 77.4962 13.6218C78.8856 12.8375 80.4766 12.4453 82.2693 12.4453C84.0172 12.4453 85.5634 12.8263 86.9079 13.5882C88.2524 14.3501 89.2832 15.4033 90.0003 16.7478C90.7398 18.0699 91.1095 19.5713 91.1095 21.2519ZM87.9499 20.6133C87.9499 19.448 87.6922 18.4508 87.1768 17.6217C86.6614 16.7702 85.9555 16.1315 85.0592 15.7058C84.1852 15.2576 83.2105 15.0335 82.1348 15.0335C80.5886 15.0335 79.2665 15.5265 78.1685 16.5125C77.0929 17.4985 76.4766 18.8654 76.3198 20.6133H87.9499Z" fill="#111827"/>
<path d="M69.1161 7.90723V31.1676H66.0573V13.8232L58.3263 31.1676H56.175L48.4104 13.7895V31.1676H45.3516V7.90723H48.6457L57.2507 27.134L65.8556 7.90723H69.1161Z" fill="#111827"/>
<path fill-rule="evenodd" clip-rule="evenodd" d="M13.5569 15.075C13.5569 13.9039 12.6076 12.9546 11.4365 12.9546L8.65439 12.9546C5.53155 12.9546 3 15.4861 3 18.609L3 21.4362C3 24.559 5.53155 27.0906 8.65439 27.0906H11.4365C12.6076 27.0906 13.5569 26.1412 13.5569 24.9702V15.075Z" fill="#3646AB"/>
<path fill-rule="evenodd" clip-rule="evenodd" d="M27.736 24.9699C27.736 26.141 28.6854 27.0903 29.8564 27.0903L32.6386 27.0903C35.7614 27.0903 38.293 24.5588 38.293 21.4359L38.293 18.6088C38.293 15.4859 35.7614 12.9544 32.6386 12.9544L29.8564 12.9544C28.6854 12.9544 27.736 13.9037 27.736 15.0748L27.736 24.9699Z" fill="#3646AB"/>
<path fill-rule="evenodd" clip-rule="evenodd" d="M25.6159 12.91C26.787 12.91 27.7363 11.9606 27.7363 10.7896L27.7363 8.00741C27.7363 4.88458 25.2048 2.35303 22.0819 2.35303L19.2547 2.35303C16.1319 2.35303 13.6004 4.88458 13.6004 8.00741L13.6004 10.7896C13.6004 11.9606 14.5497 12.91 15.7208 12.91L25.6159 12.91Z" fill="#3646AB"/>
<path fill-rule="evenodd" clip-rule="evenodd" d="M15.722 27.09C14.5509 27.09 13.6016 28.0394 13.6016 29.2104L13.6016 31.9926C13.6016 35.1154 16.1331 37.647 19.2559 37.647L22.0831 37.647C25.206 37.647 27.7375 35.1154 27.7375 31.9926L27.7375 29.2104C27.7375 28.0394 26.7882 27.09 25.6171 27.09L15.722 27.09Z" fill="#3646AB"/>
</svg>
