<svg width="156" height="32" viewBox="0 0 156 32" fill="none" xmlns="http://www.w3.org/2000/svg">
<path d="M148.051 9.9292C149.844 9.9292 151.296 10.476 152.408 11.5695C153.519 12.6451 154.075 14.2048 154.075 16.2485V24.9341H151.655V16.598C151.655 15.128 151.287 14.0076 150.552 13.2367C149.817 12.4479 148.813 12.0535 147.54 12.0535C146.25 12.0535 145.219 12.4569 144.448 13.2636C143.695 14.0703 143.319 15.2445 143.319 16.7863V24.9341H140.872V10.1981H143.319V12.2956C143.803 11.5426 144.457 10.96 145.282 10.5477C146.124 10.1354 147.047 9.9292 148.051 9.9292Z" fill="#111827"/>
<path d="M121.785 17.5123C121.785 16.0064 122.089 14.6888 122.699 13.5594C123.308 12.412 124.142 11.5247 125.2 10.8972C126.275 10.2698 127.468 9.95605 128.776 9.95605C130.067 9.95605 131.187 10.2339 132.137 10.7897C133.088 11.3454 133.796 12.0445 134.262 12.8871V10.1981H136.736V24.934H134.262V22.1912C133.778 23.0517 133.052 23.7688 132.084 24.3424C131.134 24.8982 130.022 25.176 128.749 25.176C127.441 25.176 126.257 24.8534 125.2 24.208C124.142 23.5626 123.308 22.6573 122.699 21.4921C122.089 20.3268 121.785 19.0002 121.785 17.5123ZM134.262 17.5392C134.262 16.4277 134.038 15.4596 133.59 14.635C133.141 13.8104 132.532 13.1829 131.761 12.7527C131.008 12.3045 130.174 12.0804 129.26 12.0804C128.346 12.0804 127.512 12.2955 126.759 12.7258C126.006 13.156 125.406 13.7835 124.958 14.6081C124.51 15.4327 124.285 16.4008 124.285 17.5123C124.285 18.6417 124.51 19.6276 124.958 20.4702C125.406 21.2949 126.006 21.9313 126.759 22.3794C127.512 22.8097 128.346 23.0248 129.26 23.0248C130.174 23.0248 131.008 22.8097 131.761 22.3794C132.532 21.9313 133.141 21.2949 133.59 20.4702C134.038 19.6276 134.262 18.6506 134.262 17.5392Z" fill="#111827"/>
<path d="M118.529 5.03516V24.9342H116.082V5.03516H118.529Z" fill="#111827"/>
<path d="M113.04 11.6771C113.04 13.2367 112.502 14.5365 111.427 15.5762C110.369 16.5981 108.747 17.109 106.56 17.109H102.956V24.9342H100.509V6.19141H106.56C108.675 6.19141 110.28 6.70233 111.373 7.72417C112.485 8.74601 113.04 10.0637 113.04 11.6771ZM106.56 15.0922C107.922 15.0922 108.926 14.7964 109.571 14.2048C110.217 13.6132 110.539 12.7706 110.539 11.6771C110.539 9.3645 109.213 8.2082 106.56 8.2082H102.956V15.0922H106.56Z" fill="#111827"/>
<path d="M95.1555 7.80465C94.6894 7.80465 94.295 7.64331 93.9723 7.32062C93.6496 6.99793 93.4883 6.60354 93.4883 6.13743C93.4883 5.67133 93.6496 5.27693 93.9723 4.95425C94.295 4.63156 94.6894 4.47021 95.1555 4.47021C95.6037 4.47021 95.9801 4.63156 96.2849 4.95425C96.6076 5.27693 96.7689 5.67133 96.7689 6.13743C96.7689 6.60354 96.6076 6.99793 96.2849 7.32062C95.9801 7.64331 95.6037 7.80465 95.1555 7.80465ZM96.3387 10.1979V24.934H93.8916V10.1979H96.3387Z" fill="#111827"/>
<path d="M74.8047 17.5124C74.8047 16.0065 75.1094 14.6889 75.719 13.5595C76.3285 12.4121 77.1621 11.5248 78.2198 10.8973C79.2954 10.2699 80.4965 9.95614 81.8231 9.95614C82.9705 9.95614 84.0371 10.225 85.0231 10.7629C86.0091 11.2827 86.762 11.9729 87.2819 12.8334V5.03516H89.7559V24.9342H87.2819V22.1645C86.7979 23.0429 86.0808 23.7689 85.1307 24.3426C84.1805 24.8983 83.0691 25.1762 81.7962 25.1762C80.4876 25.1762 79.2954 24.8535 78.2198 24.2082C77.1621 23.5628 76.3285 22.6575 75.719 21.4922C75.1094 20.3269 74.8047 19.0003 74.8047 17.5124ZM87.2819 17.5393C87.2819 16.4278 87.0578 15.4597 86.6097 14.6351C86.1615 13.8105 85.552 13.183 84.7811 12.7528C84.0282 12.3046 83.1946 12.0805 82.2803 12.0805C81.366 12.0805 80.5324 12.2956 79.7795 12.7259C79.0265 13.1561 78.426 13.7836 77.9778 14.6082C77.5296 15.4329 77.3055 16.4009 77.3055 17.5124C77.3055 18.6418 77.5296 19.6278 77.9778 20.4704C78.426 21.295 79.0265 21.9314 79.7795 22.3796C80.5324 22.8098 81.366 23.025 82.2803 23.025C83.1946 23.025 84.0282 22.8098 84.7811 22.3796C85.552 21.9314 86.1615 21.295 86.6097 20.4704C87.0578 19.6278 87.2819 18.6508 87.2819 17.5393Z" fill="#111827"/>
<path d="M72.4889 17.0013C72.4889 17.4675 72.462 17.9604 72.4082 18.4803H60.6302C60.7198 19.9324 61.2128 21.0708 62.1092 21.8954C63.0235 22.7021 64.126 23.1055 65.4167 23.1055C66.4744 23.1055 67.3528 22.8635 68.052 22.3794C68.769 21.8775 69.271 21.2142 69.5578 20.3895H72.1931C71.7987 21.8058 71.0099 22.9621 69.8267 23.8584C68.6436 24.7368 67.1735 25.176 65.4167 25.176C64.0184 25.176 62.7635 24.8623 61.652 24.2349C60.5585 23.6074 59.698 22.72 59.0706 21.5727C58.4431 20.4075 58.1294 19.063 58.1294 17.5392C58.1294 16.0154 58.4342 14.6798 59.0437 13.5325C59.6532 12.3852 60.5047 11.5067 61.5983 10.8972C62.7097 10.2698 63.9825 9.95605 65.4167 9.95605C66.815 9.95605 68.052 10.2608 69.1276 10.8703C70.2032 11.4798 71.0278 12.3224 71.6015 13.398C72.1931 14.4557 72.4889 15.6568 72.4889 17.0013ZM69.9612 16.4904C69.9612 15.5582 69.755 14.7605 69.3427 14.0972C68.9304 13.416 68.3657 12.905 67.6486 12.5644C66.9495 12.2059 66.1696 12.0266 65.3091 12.0266C64.0722 12.0266 63.0145 12.421 62.1361 13.2098C61.2756 13.9986 60.7826 15.0921 60.6571 16.4904H69.9612Z" fill="#111827"/>
<path d="M54.894 6.32568V24.934H52.4469V11.0584L46.2621 24.934H44.5411L38.3294 11.0315V24.934H35.8823V6.32568H38.5176L45.4016 21.7071L52.2856 6.32568H54.894Z" fill="#111827"/>
<path fill-rule="evenodd" clip-rule="evenodd" d="M10.4456 12.0601C10.4456 11.1232 9.68608 10.3638 8.74923 10.3638L6.52351 10.3638C4.02524 10.3638 2 12.389 2 14.8873L2 17.149C2 19.6473 4.02524 21.6725 6.52351 21.6725H8.74923C9.68608 21.6725 10.4456 20.9131 10.4456 19.9762V12.0601Z" fill="#3646AB"/>
<path fill-rule="evenodd" clip-rule="evenodd" d="M21.7898 19.976C21.7898 20.9129 22.5493 21.6724 23.4861 21.6724L25.7118 21.6724C28.2101 21.6724 30.2354 19.6471 30.2354 17.1489L30.2354 14.8871C30.2354 12.3888 28.2101 10.3636 25.7118 10.3636L23.4861 10.3636C22.5493 10.3636 21.7898 11.1231 21.7898 12.0599L21.7898 19.976Z" fill="#3646AB"/>
<path fill-rule="evenodd" clip-rule="evenodd" d="M20.0937 10.3279C21.0306 10.3279 21.79 9.56841 21.79 8.63156L21.79 6.40583C21.79 3.90757 19.7648 1.88232 17.2665 1.88232L15.0048 1.88232C12.5065 1.88232 10.4813 3.90757 10.4813 6.40583L10.4813 8.63156C10.4813 9.56841 11.2407 10.3279 12.1776 10.3279L20.0937 10.3279Z" fill="#3646AB"/>
<path fill-rule="evenodd" clip-rule="evenodd" d="M12.1778 21.6721C11.2409 21.6721 10.4814 22.4316 10.4814 23.3684L10.4814 25.5942C10.4814 28.0924 12.5067 30.1177 15.005 30.1177L17.2667 30.1177C19.765 30.1177 21.7902 28.0924 21.7902 25.5942L21.7902 23.3684C21.7902 22.4316 21.0308 21.6721 20.0939 21.6721L12.1778 21.6721Z" fill="#3646AB"/>
</svg>
