<svg width="548" height="112" viewBox="0 0 548 112" fill="none" xmlns="http://www.w3.org/2000/svg">
<path d="M519.185 34.7539C525.459 34.7539 530.541 36.6676 534.432 40.4951C538.322 44.2598 540.267 49.7186 540.267 56.8715V87.2714H531.796V58.095C531.796 52.9499 530.51 49.0284 527.937 46.3303C525.365 43.5696 521.851 42.1892 517.396 42.1892C512.879 42.1892 509.271 43.6009 506.573 46.4245C503.938 49.248 502.62 53.3578 502.62 58.7538V87.2714H494.055V35.6951H502.62V43.0362C504.314 40.4009 506.604 38.3617 509.49 36.9186C512.439 35.4755 515.671 34.7539 519.185 34.7539Z" fill="white"/>
<path d="M427.251 61.2946C427.251 56.0241 428.318 51.4123 430.451 47.4594C432.585 43.4437 435.502 40.3378 439.204 38.1418C442.969 35.9457 447.142 34.8477 451.722 34.8477C456.24 34.8477 460.161 35.8202 463.487 37.7653C466.812 39.7104 469.291 42.1574 470.922 45.1064V35.6947H479.581V87.271H470.922V77.6711C469.228 80.6828 466.687 83.1926 463.298 85.2004C459.973 87.1455 456.083 88.1181 451.628 88.1181C447.047 88.1181 442.906 86.9887 439.204 84.7299C435.502 82.471 432.585 79.3024 430.451 75.224C428.318 71.1456 427.251 66.5025 427.251 61.2946ZM470.922 61.3888C470.922 57.4986 470.138 54.1103 468.569 51.2241C467 48.3378 464.867 46.1417 462.169 44.6359C459.534 43.0672 456.616 42.2829 453.416 42.2829C450.216 42.2829 447.298 43.0359 444.663 44.5417C442.028 46.0476 439.926 48.2437 438.357 51.13C436.789 54.0162 436.004 57.4044 436.004 61.2946C436.004 65.2476 436.789 68.6985 438.357 71.6475C439.926 74.5338 442.028 76.7612 444.663 78.3299C447.298 79.8357 450.216 80.5887 453.416 80.5887C456.616 80.5887 459.534 79.8357 462.169 78.3299C464.867 76.7612 467 74.5338 468.569 71.6475C470.138 68.6985 470.922 65.2789 470.922 61.3888Z" fill="white"/>
<path d="M415.854 17.624V87.2709H407.29V17.624H415.854Z" fill="white"/>
<path d="M396.644 40.8708C396.644 46.3296 394.762 50.8786 390.997 54.5179C387.295 58.0943 381.617 59.8825 373.962 59.8825H361.35V87.2707H352.786V21.6709H373.962C381.366 21.6709 386.982 23.4591 390.809 27.0356C394.699 30.612 396.644 35.2238 396.644 40.8708ZM373.962 52.8237C378.731 52.8237 382.244 51.7884 384.503 49.7179C386.762 47.6473 387.891 44.6983 387.891 40.8708C387.891 32.7767 383.248 28.7297 373.962 28.7297H361.35V52.8237H373.962Z" fill="white"/>
<path d="M334.047 27.318C332.416 27.318 331.035 26.7533 329.906 25.6239C328.777 24.4945 328.212 23.1141 328.212 21.4827C328.212 19.8514 328.777 18.471 329.906 17.3416C331.035 16.2122 332.416 15.6475 334.047 15.6475C335.616 15.6475 336.933 16.2122 338 17.3416C339.13 18.471 339.694 19.8514 339.694 21.4827C339.694 23.1141 339.13 24.4945 338 25.6239C336.933 26.7533 335.616 27.318 334.047 27.318ZM338.188 35.6945V87.2708H329.624V35.6945H338.188Z" fill="white"/>
<path d="M262.82 61.2945C262.82 56.0239 263.887 51.4122 266.02 47.4592C268.154 43.4436 271.071 40.3377 274.773 38.1416C278.538 35.9455 282.742 34.8475 287.385 34.8475C291.401 34.8475 295.134 35.7887 298.585 37.671C302.036 39.4906 304.671 41.9063 306.491 44.9181V17.624H315.15V87.2709H306.491V77.5768C304.797 80.6513 302.287 83.1925 298.961 85.2003C295.636 87.1454 291.746 88.1179 287.291 88.1179C282.71 88.1179 278.538 86.9885 274.773 84.7297C271.071 82.4709 268.154 79.3023 266.02 75.2238C263.887 71.1454 262.82 66.5023 262.82 61.2945ZM306.491 61.3886C306.491 57.4984 305.706 54.1102 304.138 51.2239C302.569 48.3377 300.436 46.1416 297.738 44.6357C295.103 43.0671 292.185 42.2828 288.985 42.2828C285.785 42.2828 282.867 43.0357 280.232 44.5416C277.597 46.0475 275.495 48.2435 273.926 51.1298C272.358 54.0161 271.573 57.4043 271.573 61.2945C271.573 65.2474 272.358 68.6984 273.926 71.6474C275.495 74.5337 277.597 76.7611 280.232 78.3297C282.867 79.8356 285.785 80.5885 288.985 80.5885C292.185 80.5885 295.103 79.8356 297.738 78.3297C300.436 76.7611 302.569 74.5337 304.138 71.6474C305.706 68.6984 306.491 65.2788 306.491 61.3886Z" fill="white"/>
<path d="M254.715 59.5064C254.715 61.1378 254.621 62.8633 254.432 64.6829H213.209C213.523 69.7652 215.248 73.7495 218.385 76.6358C221.585 79.4593 225.444 80.871 229.962 80.871C233.664 80.871 236.738 80.024 239.185 78.3299C241.695 76.573 243.452 74.2515 244.456 71.3652H253.679C252.299 76.322 249.538 80.3691 245.397 83.5063C241.256 86.5808 236.111 88.1181 229.962 88.1181C225.068 88.1181 220.676 87.02 216.785 84.824C212.958 82.6279 209.946 79.522 207.75 75.5064C205.554 71.4279 204.456 66.7221 204.456 61.3888C204.456 56.0554 205.523 51.3809 207.656 47.3653C209.789 43.3496 212.77 40.2751 216.597 38.1418C220.487 35.9457 224.942 34.8477 229.962 34.8477C234.856 34.8477 239.185 35.9143 242.95 38.0476C246.715 40.181 249.601 43.13 251.609 46.8947C253.679 50.5966 254.715 54.8005 254.715 59.5064ZM245.868 57.7182C245.868 54.4554 245.146 51.6633 243.703 49.3417C242.26 46.9574 240.283 45.1692 237.774 43.977C235.327 42.7221 232.597 42.0947 229.585 42.0947C225.256 42.0947 221.554 43.4751 218.48 46.2359C215.468 48.9966 213.742 52.8241 213.303 57.7182H245.868Z" fill="white"/>
<path d="M193.13 22.1416V87.2708H184.566V38.7063L162.919 87.2708H156.895L135.154 38.6121V87.2708H126.589V22.1416H135.813L159.907 75.9767L184.001 22.1416H193.13Z" fill="white"/>
<path fill-rule="evenodd" clip-rule="evenodd" d="M37.5593 42.2104C37.5593 38.9315 34.9012 36.2734 31.6223 36.2734L23.8324 36.2734C15.0887 36.2734 8.00049 43.3616 8.00049 52.1054L8.00049 60.0213C8.00049 68.7651 15.0887 75.8533 23.8324 75.8533H31.6223C34.9012 75.8533 37.5593 73.1952 37.5593 69.9163V42.2104Z" fill="white"/>
<path fill-rule="evenodd" clip-rule="evenodd" d="M77.2659 69.917C77.2659 73.1959 79.924 75.854 83.2029 75.854L90.9928 75.854C99.7365 75.854 106.825 68.7658 106.825 60.0221L106.825 52.1061C106.825 43.3624 99.7365 36.2742 90.9928 36.2742L83.2029 36.2742C79.924 36.2742 77.2659 38.9322 77.2659 42.2111L77.2659 69.917Z" fill="white"/>
<path fill-rule="evenodd" clip-rule="evenodd" d="M71.3291 36.1472C74.608 36.1472 77.2661 33.4891 77.2661 30.2102L77.2661 22.4203C77.2661 13.6766 70.1779 6.58838 61.4342 6.58838L53.5182 6.58838C44.7745 6.58838 37.6863 13.6766 37.6863 22.4203L37.6863 30.2102C37.6863 33.4891 40.3443 36.1472 43.6232 36.1472L71.3291 36.1472Z" fill="white"/>
<path fill-rule="evenodd" clip-rule="evenodd" d="M43.6225 75.8538C40.3436 75.8538 37.6855 78.5119 37.6855 81.7908L37.6855 89.5807C37.6855 98.3244 44.7738 105.413 53.5175 105.413L61.4335 105.413C70.1772 105.413 77.2654 98.3244 77.2654 89.5807L77.2654 81.7908C77.2654 78.5119 74.6073 75.8538 71.3284 75.8538L43.6225 75.8538Z" fill="white"/>
</svg>
