<svg width="276" height="56" viewBox="0 0 276 56" fill="none" xmlns="http://www.w3.org/2000/svg">
<path d="M260.984 17.082C264.121 17.082 266.662 18.0389 268.607 19.9525C270.552 21.8348 271.525 24.5642 271.525 28.1405V43.3401H267.289V28.7523C267.289 26.1798 266.646 24.2191 265.36 22.8701C264.074 21.4897 262.317 20.7996 260.09 20.7996C257.831 20.7996 256.027 21.5054 254.678 22.9172C253.36 24.3289 252.702 26.3837 252.702 29.0817V43.3401H248.419V17.5526H252.702V21.2231C253.549 19.9055 254.694 18.8859 256.137 18.1644C257.611 17.4428 259.227 17.082 260.984 17.082Z" fill="#111827"/>
<path d="M215.019 30.3516C215.019 27.7163 215.552 25.4105 216.619 23.4341C217.686 21.4263 219.144 19.8734 220.995 18.7754C222.878 17.6774 224.964 17.1284 227.254 17.1284C229.513 17.1284 231.473 17.6147 233.136 18.5872C234.799 19.5597 236.038 20.7832 236.854 22.2577V17.5519H241.183V43.3394H236.854V38.5395C236.007 40.0454 234.736 41.3002 233.042 42.3041C231.379 43.2767 229.434 43.7629 227.207 43.7629C224.917 43.7629 222.846 43.1982 220.995 42.0689C219.144 40.9395 217.686 39.3552 216.619 37.3161C215.552 35.2769 215.019 32.9554 215.019 30.3516ZM236.854 30.3986C236.854 28.4536 236.462 26.7595 235.677 25.3164C234.893 23.8733 233.826 22.7753 232.477 22.0224C231.16 21.2381 229.701 20.846 228.101 20.846C226.501 20.846 225.042 21.2224 223.725 21.9753C222.407 22.7283 221.356 23.8263 220.572 25.2694C219.788 26.7124 219.395 28.4065 219.395 30.3516C219.395 32.328 219.788 34.0534 220.572 35.5279C221.356 36.971 222.407 38.0847 223.725 38.8689C225.042 39.6219 226.501 39.9983 228.101 39.9983C229.701 39.9983 231.16 39.6219 232.477 38.8689C233.826 38.0847 234.893 36.971 235.677 35.5279C236.462 34.0534 236.854 32.3437 236.854 30.3986Z" fill="#111827"/>
<path d="M209.32 8.51709V43.3396H205.038V8.51709H209.32Z" fill="#111827"/>
<path d="M199.715 20.1398C199.715 22.8691 198.774 25.1435 196.892 26.9631C195.041 28.7513 192.202 29.6454 188.375 29.6454H182.069V43.3391H177.787V10.54H188.375C192.076 10.54 194.884 11.4341 196.798 13.2223C198.743 15.0105 199.715 17.3163 199.715 20.1398ZM188.375 26.116C190.759 26.116 192.516 25.5984 193.645 24.5632C194.774 23.5279 195.339 22.0534 195.339 20.1398C195.339 16.0928 193.018 14.0693 188.375 14.0693H182.069V26.116H188.375Z" fill="#111827"/>
<path d="M168.418 13.3644C167.602 13.3644 166.912 13.0821 166.347 12.5174C165.782 11.9527 165.5 11.2625 165.5 10.4469C165.5 9.6312 165.782 8.94102 166.347 8.37633C166.912 7.81164 167.602 7.5293 168.418 7.5293C169.202 7.5293 169.861 7.81164 170.394 8.37633C170.959 8.94102 171.241 9.6312 171.241 10.4469C171.241 11.2625 170.959 11.9527 170.394 12.5174C169.861 13.0821 169.202 13.3644 168.418 13.3644ZM170.488 17.5525V43.34H166.206V17.5525H170.488Z" fill="#111827"/>
<path d="M132.805 30.3517C132.805 27.7165 133.338 25.4107 134.405 23.4343C135.472 21.4265 136.931 19.8736 138.781 18.7756C140.664 17.6776 142.766 17.1286 145.087 17.1286C147.095 17.1286 148.962 17.5992 150.687 18.5403C152.412 19.4501 153.73 20.6579 154.64 22.1637V8.51709H158.969V43.3396H154.64V38.4927C153.793 40.0299 152.538 41.3004 150.875 42.3043C149.213 43.2768 147.267 43.7631 145.04 43.7631C142.75 43.7631 140.664 43.1984 138.781 42.069C136.931 40.9397 135.472 39.3554 134.405 37.3162C133.338 35.2771 132.805 32.9556 132.805 30.3517ZM154.64 30.3988C154.64 28.4538 154.248 26.7597 153.463 25.3166C152.679 23.8735 151.612 22.7755 150.263 22.0226C148.946 21.2383 147.487 20.8461 145.887 20.8461C144.287 20.8461 142.828 21.2226 141.511 21.9755C140.193 22.7284 139.142 23.8264 138.358 25.2695C137.574 26.7126 137.182 28.4067 137.182 30.3517C137.182 32.3281 137.574 34.0536 138.358 35.5281C139.142 36.9711 140.193 38.0848 141.511 38.8691C142.828 39.622 144.287 39.9985 145.887 39.9985C147.487 39.9985 148.946 39.622 150.263 38.8691C151.612 38.0848 152.679 36.9711 153.463 35.5281C154.248 34.0536 154.64 32.3438 154.64 30.3988Z" fill="#111827"/>
<path d="M128.753 29.4575C128.753 30.2731 128.706 31.1358 128.612 32.0456H108.001C108.158 34.5867 109.02 36.5788 110.589 38.0219C112.189 39.4336 114.118 40.1395 116.377 40.1395C118.228 40.1395 119.765 39.716 120.989 38.8689C122.244 37.9905 123.122 36.8298 123.624 35.3867H128.236C127.545 37.8651 126.165 39.8885 124.094 41.4571C122.024 42.9943 119.451 43.7629 116.377 43.7629C113.93 43.7629 111.734 43.2139 109.789 42.1159C107.875 41.0179 106.37 39.465 105.272 37.4572C104.174 35.4181 103.625 33.0652 103.625 30.3986C103.625 27.732 104.158 25.3948 105.224 23.3871C106.291 21.3793 107.781 19.8421 109.695 18.7754C111.64 17.6774 113.867 17.1284 116.377 17.1284C118.824 17.1284 120.989 17.6617 122.871 18.7284C124.753 19.795 126.196 21.2695 127.2 23.1518C128.236 25.0027 128.753 27.1046 128.753 29.4575ZM124.33 28.5634C124.33 26.932 123.969 25.536 123.247 24.3753C122.526 23.1831 121.538 22.289 120.283 21.693C119.059 21.0656 117.695 20.7518 116.189 20.7518C114.024 20.7518 112.173 21.442 110.636 22.8224C109.13 24.2027 108.268 26.1164 108.048 28.5634H124.33Z" fill="#111827"/>
<path d="M97.961 10.7759V43.3396H93.6788V19.058L82.8556 43.3396H79.8439L68.9736 19.0109V43.3396H64.6914V10.7759H69.303L81.3497 37.6927L93.3964 10.7759H97.961Z" fill="#111827"/>
<path fill-rule="evenodd" clip-rule="evenodd" d="M20.1779 20.8097C20.1779 19.1703 18.8489 17.8413 17.2095 17.8413L13.3147 17.8413C8.94293 17.8413 5.39893 21.3853 5.39893 25.7571L5.39893 29.7149C5.39893 34.0867 8.94293 37.6307 13.3147 37.6307H17.2095C18.8489 37.6307 20.1779 36.3017 20.1779 34.6623V20.8097Z" fill="#3646AB"/>
<path fill-rule="evenodd" clip-rule="evenodd" d="M40.0306 34.6625C40.0306 36.3019 41.3596 37.6309 42.999 37.6309L46.8938 37.6309C51.2656 37.6309 54.8096 34.0869 54.8096 29.7151L54.8096 25.7572C54.8096 21.3855 51.2656 17.8415 46.8938 17.8415L42.999 17.8415C41.3596 17.8415 40.0306 19.1705 40.0306 20.8099L40.0306 34.6625Z" fill="#3646AB"/>
<path fill-rule="evenodd" clip-rule="evenodd" d="M37.0619 17.7785C38.7013 17.7785 40.0303 16.4495 40.0303 14.8101L40.0303 10.9153C40.0303 6.54352 36.4863 2.99951 32.1145 2.99951L28.1566 2.99951C23.7849 2.99951 20.2409 6.54352 20.2409 10.9153L20.2409 14.8101C20.2409 16.4495 21.5699 17.7785 23.2093 17.7785L37.0619 17.7785Z" fill="#3646AB"/>
<path fill-rule="evenodd" clip-rule="evenodd" d="M23.2091 37.6312C21.5697 37.6312 20.2407 38.9602 20.2407 40.5996L20.2407 44.4944C20.2407 48.8661 23.7847 52.4102 28.1565 52.4102L32.1144 52.4102C36.4861 52.4102 40.0301 48.8661 40.0301 44.4944L40.0301 40.5996C40.0301 38.9602 38.7011 37.6312 37.0617 37.6312L23.2091 37.6312Z" fill="#3646AB"/>
</svg>
