<svg width="314" height="64" viewBox="0 0 314 64" fill="none" xmlns="http://www.w3.org/2000/svg">
<path d="M297.099 20.0942C300.684 20.0942 303.589 21.1878 305.811 23.3748C308.034 25.526 309.146 28.6453 309.146 32.7326V50.1036H304.306V33.4317C304.306 30.4917 303.571 28.2509 302.101 26.7092C300.631 25.1316 298.623 24.3429 296.077 24.3429C293.496 24.3429 291.434 25.1496 289.893 26.763C288.387 28.3764 287.634 30.7248 287.634 33.8082V50.1036H282.74V20.632H287.634V24.8269C288.602 23.3211 289.91 22.1558 291.56 21.3312C293.245 20.5066 295.091 20.0942 297.099 20.0942Z" fill="white"/>
<path d="M244.567 35.2597C244.567 32.248 245.177 29.6128 246.396 27.354C247.615 25.0594 249.282 23.2846 251.397 22.0298C253.549 20.7749 255.933 20.1475 258.55 20.1475C261.132 20.1475 263.373 20.7032 265.273 21.8146C267.173 22.9261 268.589 24.3244 269.521 26.0095V20.6315H274.469V50.103H269.521V44.6175C268.553 46.3384 267.101 47.7726 265.165 48.9199C263.265 50.0313 261.042 50.5871 258.496 50.5871C255.879 50.5871 253.513 49.9417 251.397 48.651C249.282 47.3603 247.615 45.5496 246.396 43.2192C245.177 40.8887 244.567 38.2355 244.567 35.2597ZM269.521 35.3135C269.521 33.0906 269.073 31.1545 268.177 29.5052C267.281 27.856 266.062 26.6011 264.52 25.7406C263.014 24.8443 261.347 24.3961 259.518 24.3961C257.69 24.3961 256.023 24.8263 254.517 25.6868C253.011 26.5473 251.81 27.8022 250.913 29.4514C250.017 31.1007 249.569 33.0368 249.569 35.2597C249.569 37.5185 250.017 39.4904 250.913 41.1755C251.81 42.8248 253.011 44.0976 254.517 44.9939C256.023 45.8544 257.69 46.2846 259.518 46.2846C261.347 46.2846 263.014 45.8544 264.52 44.9939C266.062 44.0976 267.281 42.8248 268.177 41.1755C269.073 39.4904 269.521 37.5364 269.521 35.3135Z" fill="white"/>
<path d="M238.055 10.3057V50.103H233.161V10.3057H238.055Z" fill="white"/>
<path d="M227.078 23.5893C227.078 26.7086 226.002 29.308 223.851 31.3875C221.736 33.4311 218.491 34.4529 214.117 34.4529H206.91V50.103H202.016V12.6182H214.117C218.347 12.6182 221.556 13.64 223.743 15.6836C225.966 17.7273 227.078 20.3625 227.078 23.5893ZM214.117 30.4194C216.842 30.4194 218.849 29.8278 220.14 28.6447C221.431 27.4615 222.076 25.7764 222.076 23.5893C222.076 18.9642 219.423 16.6517 214.117 16.6517H206.91V30.4194H214.117Z" fill="white"/>
<path d="M191.308 15.8455C190.376 15.8455 189.588 15.5228 188.942 14.8775C188.297 14.2321 187.974 13.4433 187.974 12.5111C187.974 11.5789 188.297 10.7902 188.942 10.1448C189.588 9.49944 190.376 9.17676 191.308 9.17676C192.205 9.17676 192.958 9.49944 193.567 10.1448C194.213 10.7902 194.535 11.5789 194.535 12.5111C194.535 13.4433 194.213 14.2321 193.567 14.8775C192.958 15.5228 192.205 15.8455 191.308 15.8455ZM193.675 20.6319V50.1035H188.781V20.6319H193.675Z" fill="white"/>
<path d="M150.608 35.2597C150.608 32.248 151.218 29.6128 152.437 27.354C153.656 25.0594 155.323 23.2846 157.438 22.0298C159.59 20.7749 161.992 20.1474 164.645 20.1474C166.94 20.1474 169.073 20.6852 171.045 21.7609C173.017 22.8006 174.523 24.181 175.562 25.9019V10.3057H180.51V50.103H175.562V44.5637C174.594 46.3205 173.16 47.7726 171.26 48.9199C169.36 50.0313 167.137 50.587 164.591 50.587C161.974 50.587 159.59 49.9417 157.438 48.651C155.323 47.3602 153.656 45.5496 152.437 43.2192C151.218 40.8887 150.608 38.2355 150.608 35.2597ZM175.562 35.3135C175.562 33.0906 175.114 31.1545 174.218 29.5052C173.322 27.8559 172.103 26.6011 170.561 25.7406C169.055 24.8442 167.388 24.3961 165.559 24.3961C163.731 24.3961 162.064 24.8263 160.558 25.6868C159.052 26.5473 157.851 27.8022 156.954 29.4514C156.058 31.1007 155.61 33.0368 155.61 35.2597C155.61 37.5185 156.058 39.4904 156.954 41.1755C157.851 42.8248 159.052 44.0976 160.558 44.9939C162.064 45.8544 163.731 46.2846 165.559 46.2846C167.388 46.2846 169.055 45.8544 170.561 44.9939C172.103 44.0976 173.322 42.8248 174.218 41.1755C175.114 39.4904 175.562 37.5364 175.562 35.3135Z" fill="white"/>
<path d="M145.977 34.2379C145.977 35.1701 145.923 36.156 145.816 37.1958H122.26C122.439 40.0999 123.425 42.3766 125.218 44.0259C127.046 45.6393 129.251 46.446 131.833 46.446C133.948 46.446 135.705 45.962 137.103 44.9939C138.537 43.99 139.541 42.6634 140.115 41.0142H145.385C144.597 43.8466 143.019 46.1592 140.653 47.9518C138.286 49.7087 135.346 50.5871 131.833 50.5871C129.036 50.5871 126.526 49.9596 124.304 48.7048C122.116 47.4499 120.395 45.6751 119.141 43.3805C117.886 41.05 117.258 38.361 117.258 35.3135C117.258 32.2659 117.868 29.5949 119.087 27.3002C120.306 25.0056 122.009 23.2488 124.196 22.0298C126.419 20.7749 128.964 20.1475 131.833 20.1475C134.629 20.1475 137.103 20.757 139.254 21.976C141.406 23.195 143.055 24.8801 144.202 27.0313C145.385 29.1467 145.977 31.5489 145.977 34.2379ZM140.922 33.2161C140.922 31.3517 140.509 29.7562 139.685 28.4296C138.86 27.0672 137.731 26.0454 136.297 25.3641C134.898 24.6471 133.339 24.2885 131.618 24.2885C129.144 24.2885 127.028 25.0773 125.272 26.6549C123.551 28.2324 122.565 30.4195 122.314 33.2161H140.922Z" fill="white"/>
<path d="M110.786 12.8872V50.1031H105.892V22.3525L93.5228 50.1031H90.0809L77.6577 22.2987V50.1031H72.7637V12.8872H78.0341L91.8019 43.6495L105.57 12.8872H110.786Z" fill="white"/>
<path fill-rule="evenodd" clip-rule="evenodd" d="M21.8904 24.3549C21.8904 22.4813 20.3715 20.9624 18.4979 20.9624L14.0466 20.9624C9.05032 20.9624 5 25.0127 5 30.009L5 34.5324C5 39.5287 9.05032 43.579 14.0466 43.579H18.4979C20.3715 43.579 21.8904 42.0601 21.8904 40.1865V24.3549Z" fill="white"/>
<path fill-rule="evenodd" clip-rule="evenodd" d="M44.5793 40.1866C44.5793 42.0602 46.0982 43.5791 47.9718 43.5791L52.4231 43.5791C57.4194 43.5791 61.4697 39.5288 61.4697 34.5325L61.4697 30.0092C61.4697 25.0128 57.4194 20.9625 52.4231 20.9625L47.9718 20.9625C46.0982 20.9625 44.5793 22.4814 44.5793 24.355L44.5793 40.1866Z" fill="white"/>
<path fill-rule="evenodd" clip-rule="evenodd" d="M41.1869 20.8904C43.0605 20.8904 44.5793 19.3715 44.5793 17.4979L44.5793 13.0466C44.5793 8.05032 40.529 4 35.5327 4L31.0094 4C26.0131 4 21.9628 8.05031 21.9628 13.0466L21.9628 17.4979C21.9628 19.3715 23.4816 20.8904 25.3553 20.8904L41.1869 20.8904Z" fill="white"/>
<path fill-rule="evenodd" clip-rule="evenodd" d="M25.3549 43.5793C23.4813 43.5793 21.9624 45.0982 21.9624 46.9718L21.9624 51.4231C21.9624 56.4194 26.0127 60.4697 31.009 60.4697L35.5324 60.4697C40.5287 60.4697 44.579 56.4194 44.579 51.4231L44.579 46.9718C44.579 45.0982 43.0601 43.5793 41.1865 43.5793L25.3549 43.5793Z" fill="white"/>
</svg>
