<svg width="156" height="32" viewBox="0 0 156 32" fill="none" xmlns="http://www.w3.org/2000/svg">
<path d="M148.051 10.0469C149.844 10.0469 151.296 10.5936 152.408 11.6872C153.519 12.7628 154.075 14.3225 154.075 16.3661V25.0517H151.655V16.7157C151.655 15.2457 151.287 14.1253 150.552 13.3544C149.817 12.5656 148.813 12.1712 147.54 12.1712C146.25 12.1712 145.219 12.5746 144.448 13.3813C143.695 14.188 143.319 15.3622 143.319 16.9039V25.0517H140.872V10.3158H143.319V12.4132C143.803 11.6603 144.457 11.0777 145.282 10.6654C146.124 10.253 147.047 10.0469 148.051 10.0469Z" fill="white"/>
<path d="M121.785 17.6299C121.785 16.1241 122.089 14.8064 122.699 13.6771C123.308 12.5297 124.142 11.6423 125.2 11.0149C126.275 10.3875 127.468 10.0737 128.776 10.0737C130.067 10.0737 131.187 10.3516 132.137 10.9073C133.088 11.4631 133.796 12.1622 134.262 13.0048V10.3157H136.736V25.0517H134.262V22.3089C133.778 23.1694 133.052 23.8865 132.084 24.4601C131.134 25.0159 130.022 25.2937 128.749 25.2937C127.441 25.2937 126.257 24.971 125.2 24.3257C124.142 23.6803 123.308 22.775 122.699 21.6097C122.089 20.4445 121.785 19.1179 121.785 17.6299ZM134.262 17.6568C134.262 16.5454 134.038 15.5773 133.59 14.7527C133.141 13.928 132.532 13.3006 131.761 12.8703C131.008 12.4222 130.174 12.1981 129.26 12.1981C128.346 12.1981 127.512 12.4132 126.759 12.8434C126.006 13.2737 125.406 13.9011 124.958 14.7258C124.51 15.5504 124.285 16.5185 124.285 17.6299C124.285 18.7593 124.51 19.7453 124.958 20.5879C125.406 21.4125 126.006 22.0489 126.759 22.4971C127.512 22.9274 128.346 23.1425 129.26 23.1425C130.174 23.1425 131.008 22.9274 131.761 22.4971C132.532 22.0489 133.141 21.4125 133.59 20.5879C134.038 19.7453 134.262 18.7683 134.262 17.6568Z" fill="white"/>
<path d="M118.529 5.15283V25.0519H116.082V5.15283H118.529Z" fill="white"/>
<path d="M113.04 11.7948C113.04 13.3544 112.502 14.6541 111.427 15.6939C110.369 16.7157 108.747 17.2267 106.56 17.2267H102.956V25.0518H100.509V6.30908H106.56C108.675 6.30908 110.28 6.82 111.373 7.84185C112.485 8.86369 113.04 10.1813 113.04 11.7948ZM106.56 15.2099C107.922 15.2099 108.926 14.9141 109.571 14.3225C110.217 13.7309 110.539 12.8883 110.539 11.7948C110.539 9.48217 109.213 8.32588 106.56 8.32588H102.956V15.2099H106.56Z" fill="white"/>
<path d="M95.1555 7.92233C94.6894 7.92233 94.295 7.76098 93.9723 7.43829C93.6496 7.11561 93.4883 6.72121 93.4883 6.25511C93.4883 5.789 93.6496 5.39461 93.9723 5.07192C94.295 4.74923 94.6894 4.58789 95.1555 4.58789C95.6037 4.58789 95.9801 4.74923 96.2849 5.07192C96.6076 5.39461 96.7689 5.789 96.7689 6.25511C96.7689 6.72121 96.6076 7.11561 96.2849 7.43829C95.9801 7.76098 95.6037 7.92233 95.1555 7.92233ZM96.3387 10.3156V25.0516H93.8916V10.3156H96.3387Z" fill="white"/>
<path d="M74.8047 17.6301C74.8047 16.1242 75.1094 14.8066 75.719 13.6772C76.3285 12.5298 77.1621 11.6424 78.2198 11.015C79.2954 10.3875 80.4965 10.0738 81.8231 10.0738C82.9705 10.0738 84.0371 10.3427 85.0231 10.8805C86.0091 11.4004 86.762 12.0906 87.2819 12.9511V5.15283H89.7559V25.0519H87.2819V22.2821C86.7979 23.1606 86.0808 23.8866 85.1307 24.4603C84.1805 25.016 83.0691 25.2939 81.7962 25.2939C80.4876 25.2939 79.2954 24.9712 78.2198 24.3258C77.1621 23.6805 76.3285 22.7751 75.719 21.6099C75.1094 20.4446 74.8047 19.118 74.8047 17.6301ZM87.2819 17.657C87.2819 16.5455 87.0578 15.5774 86.6097 14.7528C86.1615 13.9281 85.552 13.3007 84.7811 12.8704C84.0282 12.4223 83.1946 12.1982 82.2803 12.1982C81.366 12.1982 80.5324 12.4133 79.7795 12.8435C79.0265 13.2738 78.426 13.9012 77.9778 14.7259C77.5296 15.5505 77.3055 16.5186 77.3055 17.6301C77.3055 18.7595 77.5296 19.7455 77.9778 20.588C78.426 21.4127 79.0265 22.0491 79.7795 22.4973C80.5324 22.9275 81.366 23.1426 82.2803 23.1426C83.1946 23.1426 84.0282 22.9275 84.7811 22.4973C85.552 22.0491 86.1615 21.4127 86.6097 20.588C87.0578 19.7455 87.2819 18.7684 87.2819 17.657Z" fill="white"/>
<path d="M72.4889 17.119C72.4889 17.5851 72.462 18.0781 72.4082 18.598H60.6302C60.7198 20.0501 61.2128 21.1884 62.1092 22.0131C63.0235 22.8198 64.126 23.2232 65.4167 23.2232C66.4744 23.2232 67.3528 22.9811 68.052 22.4971C68.769 21.9952 69.271 21.3319 69.5578 20.5072H72.1931C71.7987 21.9234 71.0099 23.0797 69.8267 23.9761C68.6436 24.8545 67.1735 25.2937 65.4167 25.2937C64.0184 25.2937 62.7635 24.98 61.652 24.3526C60.5585 23.7251 59.698 22.8377 59.0706 21.6904C58.4431 20.5251 58.1294 19.1806 58.1294 17.6568C58.1294 16.133 58.4342 14.7975 59.0437 13.6502C59.6532 12.5028 60.5047 11.6244 61.5983 11.0149C62.7097 10.3875 63.9825 10.0737 65.4167 10.0737C66.815 10.0737 68.052 10.3785 69.1276 10.988C70.2032 11.5975 71.0278 12.4401 71.6015 13.5157C72.1931 14.5734 72.4889 15.7745 72.4889 17.119ZM69.9612 16.6081C69.9612 15.6759 69.755 14.8782 69.3427 14.2149C68.9304 13.5336 68.3657 13.0227 67.6486 12.6821C66.9495 12.3236 66.1696 12.1443 65.3091 12.1443C64.0722 12.1443 63.0145 12.5387 62.1361 13.3275C61.2756 14.1163 60.7826 15.2098 60.6571 16.6081H69.9612Z" fill="white"/>
<path d="M54.894 6.44336V25.0517H52.4469V11.1761L46.2621 25.0517H44.5411L38.3294 11.1492V25.0517H35.8823V6.44336H38.5176L45.4016 21.8248L52.2856 6.44336H54.894Z" fill="white"/>
<path fill-rule="evenodd" clip-rule="evenodd" d="M10.4456 12.1778C10.4456 11.2409 9.68608 10.4814 8.74923 10.4814L6.52351 10.4814C4.02524 10.4814 2 12.5067 2 15.005L2 17.2667C2 19.765 4.02524 21.7902 6.52351 21.7902H8.74923C9.68608 21.7902 10.4456 21.0308 10.4456 20.0939V12.1778Z" fill="white"/>
<path fill-rule="evenodd" clip-rule="evenodd" d="M21.7896 20.0937C21.7896 21.0306 22.549 21.79 23.4859 21.79L25.7116 21.79C28.2099 21.79 30.2351 19.7648 30.2351 17.2665L30.2351 15.0048C30.2351 12.5065 28.2099 10.4813 25.7116 10.4813L23.4859 10.4813C22.549 10.4813 21.7896 11.2407 21.7896 12.1776L21.7896 20.0937Z" fill="white"/>
<path fill-rule="evenodd" clip-rule="evenodd" d="M20.0935 10.4456C21.0303 10.4456 21.7898 9.68608 21.7898 8.74923L21.7898 6.52351C21.7898 4.02524 19.7645 2 17.2663 2L15.0045 2C12.5063 2 10.481 4.02524 10.481 6.52351L10.481 8.74923C10.481 9.68608 11.2405 10.4456 12.1773 10.4456L20.0935 10.4456Z" fill="white"/>
<path fill-rule="evenodd" clip-rule="evenodd" d="M12.1775 21.7898C11.2407 21.7898 10.4812 22.5493 10.4812 23.4861L10.4812 25.7118C10.4812 28.2101 12.5064 30.2354 15.0047 30.2354L17.2665 30.2354C19.7647 30.2354 21.79 28.2101 21.79 25.7118L21.79 23.4861C21.79 22.5493 21.0305 21.7898 20.0937 21.7898L12.1775 21.7898Z" fill="white"/>
</svg>
