<svg width="192" height="352" viewBox="0 0 192 352" fill="none" xmlns="http://www.w3.org/2000/svg">
<g clip-path="url(#clip0_3175_452)">
<path d="M192.42 289.684L101.905 16.8755C98.8121 7.55548 88.7501 2.50693 79.4299 5.59918L45.678 16.7974C36.3579 19.8899 31.3092 29.9529 34.4016 39.273L138.162 352H192.42V289.684ZM79.4124 231.394C76.32 222.074 66.2579 217.025 56.9377 220.117L23.1858 231.316C13.8658 234.408 8.81716 244.47 11.9094 253.791L44.4944 352H119.428L79.4124 231.394Z" fill="white" fill-opacity="0.08"/>
<path d="M192.42 325.794L93.9055 28.876C90.8131 19.5558 80.7501 14.5072 71.4299 17.5996L37.6789 28.7979C28.3587 31.8902 23.3102 41.9522 26.4025 51.2725L126.181 352H192.42V325.794ZM71.4133 243.394C68.3209 234.073 58.2579 229.025 48.9377 232.117L15.1867 243.315C5.86651 246.408 0.817003 256.471 3.90938 265.791L32.5129 352H107.447L71.4133 243.394Z" fill="#525765"/>
</g>
<defs>
<clipPath id="clip0_3175_452">
<rect width="192" height="352" fill="white" transform="matrix(1 0 0 -1 0 352)"/>
</clipPath>
</defs>
</svg>
