<svg width="224" height="160" viewBox="0 0 224 160" fill="none" xmlns="http://www.w3.org/2000/svg">
<g clip-path="url(#clip0_3175_10127)">
<path d="M224.379 68.6299L199.42 143.836C196.327 153.156 186.264 158.203 176.945 155.11L143.194 143.909C133.874 140.816 128.826 130.754 131.919 121.434L172.22 0H224.379V68.6299ZM131.41 67.6875C128.317 77.0074 118.255 82.0549 108.935 78.962L75.1838 67.7608C65.864 64.6676 60.8163 54.6051 63.9094 45.2852L78.9387 0H153.874L131.41 67.6875Z" fill="white" fill-opacity="0.08"/>
<path d="M224.381 38.5488L193.421 131.836C190.328 141.156 180.265 146.203 170.945 143.11L137.194 131.909C127.875 128.816 122.827 118.753 125.92 109.434L162.238 0H224.381V38.5488ZM125.411 55.6875C122.318 65.0075 112.255 70.055 102.936 66.9619L69.1845 55.7607C59.865 52.6674 54.8171 42.6049 57.9101 33.2852L68.957 0H143.893L125.411 55.6875Z" fill="#525765"/>
</g>
<defs>
<clipPath id="clip0_3175_10127">
<rect width="224" height="160" fill="white"/>
</clipPath>
</defs>
</svg>
