<svg width="688" height="320" viewBox="0 0 688 320" fill="none" xmlns="http://www.w3.org/2000/svg">
<g opacity="0.4" clip-path="url(#clip0_3137_321)">
<path d="M118.725 20.8812C122.144 10.5588 133.269 4.96715 143.572 8.39199L180.886 20.7946C191.19 24.2195 196.772 35.3641 193.353 45.6865L102.5 320H19.6571L118.725 20.8812ZM143.592 258.467C147.01 248.144 158.135 242.553 168.438 245.977L205.753 258.38C216.057 261.805 221.638 272.949 218.22 283.272L206.055 320H123.212L143.592 258.467ZM340.482 20.8812C343.901 10.5588 355.026 4.96715 365.33 8.39199L402.643 20.7946C412.947 24.2195 418.529 35.3641 415.11 45.6865L324.258 320H241.414L340.482 20.8812ZM365.349 258.467C368.768 248.144 379.892 242.553 390.196 245.977L427.51 258.38C437.814 261.805 443.395 272.949 439.977 283.272L427.812 320H344.969L365.349 258.467ZM548.111 20.8812C551.53 10.5588 562.654 4.96713 572.958 8.39199L610.272 20.7946C620.576 24.2195 626.157 35.3641 622.739 45.6865L531.886 320H449.042L548.111 20.8812ZM572.977 258.467C576.396 248.144 587.52 242.552 597.824 245.977L635.138 258.38C645.442 261.805 651.024 272.949 647.605 283.272L635.441 320H552.597L572.977 258.467Z" fill="white" fill-opacity="0.08"/>
<path d="M130.385 13.4964C133.804 3.17405 144.929 -2.41762 155.233 1.00724L192.546 13.4099C202.85 16.8348 208.432 27.9793 205.013 38.3017L111.715 320H28.8716L130.385 13.4964ZM155.252 251.082C158.671 240.759 169.795 235.168 180.099 238.593L217.413 250.995C227.717 254.42 233.299 265.565 229.88 275.887L215.269 320H132.426L155.252 251.082ZM352.142 13.4964C355.561 3.17405 366.686 -2.41762 376.99 1.00724L414.303 13.4099C424.607 16.8348 430.189 27.9793 426.77 38.3017L333.472 320H250.629L352.142 13.4964ZM377.009 251.082C380.428 240.759 391.552 235.168 401.856 238.593L439.17 250.995C449.474 254.42 455.056 265.565 451.637 275.887L437.027 320H354.183L377.009 251.082ZM559.771 13.4964C563.19 3.17404 574.314 -2.41764 584.618 1.00724L621.932 13.4099C632.236 16.8348 637.818 27.9793 634.399 38.3017L541.101 320H458.257L559.771 13.4964ZM584.637 251.082C588.056 240.759 599.18 235.168 609.484 238.593L646.799 250.995C657.102 254.42 662.684 265.565 659.265 275.887L644.655 320H561.811L584.637 251.082Z" fill="#525765"/>
</g>
<defs>
<clipPath id="clip0_3137_321">
<rect width="688" height="320" fill="white"/>
</clipPath>
</defs>
</svg>
