<svg width="136" height="120" viewBox="0 0 136 120" fill="none" xmlns="http://www.w3.org/2000/svg">
<g clip-path="url(#clip0_3241_865)">
<path d="M136.284 51.4724L117.565 107.877C115.245 114.867 107.698 118.652 100.708 116.333L75.3951 107.932C68.4052 105.612 64.6195 98.0652 66.9393 91.0753L97.1649 0H136.284V51.4724ZM66.5577 50.7657C64.2378 57.7555 56.6909 61.5412 49.701 59.2215L24.3878 50.8206C17.3979 48.5007 13.6121 40.9538 15.9319 33.9639L27.2039 0H83.4056L66.5577 50.7657Z" fill="white" fill-opacity="0.08"/>
<path d="M136.286 28.9116L113.066 98.877C110.746 105.867 103.199 109.653 96.209 107.333L70.8958 98.9319C63.906 96.6119 60.1202 89.065 62.44 82.0752L89.6787 0H136.286V28.9116ZM62.0584 41.7656C59.7385 48.7556 52.1917 52.5413 45.2017 50.2214L19.8885 41.8206C12.8988 39.5005 9.11287 31.9537 11.4326 24.9639L19.7178 0H75.9195L62.0584 41.7656Z" fill="#525765"/>
</g>
<defs>
<clipPath id="clip0_3241_865">
<rect width="136" height="120" fill="white"/>
</clipPath>
</defs>
</svg>
