<svg width="1120" height="520" viewBox="0 0 1120 520" fill="none" xmlns="http://www.w3.org/2000/svg">
<g clip-path="url(#clip0_3085_956)">
<path d="M193.273 33.9317C198.839 17.1579 216.949 8.07138 233.723 13.6367L294.466 33.791C311.24 39.3565 320.326 57.4664 314.761 74.2403L166.861 520H32L193.273 33.9317ZM233.754 420.008C239.319 403.234 257.428 394.148 274.202 399.713L334.946 419.867C351.72 425.433 360.807 443.543 355.241 460.316L335.438 520H200.577L233.754 420.008ZM554.273 33.9317C559.839 17.1579 577.949 8.07138 594.723 13.6367L655.466 33.791C672.24 39.3565 681.326 57.4664 675.761 74.2403L527.861 520H393L554.273 33.9317ZM594.754 420.008C600.319 403.234 618.428 394.148 635.202 399.713L695.946 419.867C712.72 425.433 721.807 443.543 716.241 460.316L696.438 520H561.577L594.754 420.008ZM892.273 33.9317C897.839 17.1579 915.949 8.07134 932.723 13.6367L993.466 33.791C1010.24 39.3565 1019.33 57.4664 1013.76 74.2403L865.861 520H730.999L892.273 33.9317ZM932.753 420.008C938.318 403.234 956.428 394.148 973.202 399.713L1033.95 419.867C1050.72 425.433 1059.81 443.543 1054.24 460.316L1034.44 520H899.576L932.753 420.008Z" fill="white" fill-opacity="0.08"/>
<path d="M212.255 21.9317C217.82 5.15783 235.93 -3.92863 252.704 1.63676L313.447 21.7911C330.221 27.3565 339.308 45.4664 333.742 62.2403L181.861 520H47L212.255 21.9317ZM252.735 408.008C258.301 391.234 276.41 382.148 293.184 387.713L353.928 407.867C370.702 413.433 379.788 431.543 374.223 448.316L350.438 520H215.577L252.735 408.008ZM573.255 21.9317C578.82 5.15783 596.93 -3.92863 613.704 1.63676L674.447 21.7911C691.221 27.3565 700.308 45.4664 694.742 62.2403L542.861 520H408L573.255 21.9317ZM613.735 408.008C619.301 391.234 637.41 382.148 654.184 387.713L714.928 407.867C731.702 413.433 740.788 431.543 735.223 448.316L711.438 520H576.577L613.735 408.008ZM911.255 21.9317C916.82 5.15781 934.93 -3.92867 951.704 1.63676L1012.45 21.7911C1029.22 27.3565 1038.31 45.4664 1032.74 62.2403L880.861 520H745.999L911.255 21.9317ZM951.734 408.008C957.3 391.234 975.41 382.148 992.184 387.713L1052.93 407.867C1069.7 413.433 1078.79 431.543 1073.22 448.316L1049.44 520H914.576L951.734 408.008Z" fill="#525765"/>
</g>
<defs>
<clipPath id="clip0_3085_956">
<rect width="1120" height="520" fill="white"/>
</clipPath>
</defs>
</svg>
