<svg width="192" height="352" viewBox="0 0 192 352" fill="none" xmlns="http://www.w3.org/2000/svg">
<g clip-path="url(#clip0_3175_442)">
<path d="M192.42 62.3159L101.905 335.124C98.8121 344.445 88.7501 349.493 79.4299 346.401L45.678 335.203C36.3579 332.11 31.3092 322.047 34.4016 312.727L138.162 0.000488281H192.42V62.3159ZM79.4124 120.606C76.32 129.926 66.2579 134.975 56.9377 131.883L23.1858 120.684C13.8658 117.592 8.81716 107.53 11.9094 98.2095L44.4944 0.000488281H119.428L79.4124 120.606Z" fill="white" fill-opacity="0.08"/>
<path d="M192.42 26.2061L93.9055 323.124C90.8131 332.444 80.7501 337.493 71.4299 334.4L37.6789 323.202C28.3587 320.11 23.3102 310.048 26.4025 300.728L126.181 0H192.42V26.2061ZM71.4133 108.606C68.3209 117.927 58.2579 122.975 48.9377 119.883L15.1867 108.685C5.86651 105.592 0.817003 95.5292 3.90938 86.209L32.5129 0H107.447L71.4133 108.606Z" fill="#525765"/>
</g>
<defs>
<clipPath id="clip0_3175_442">
<rect width="192" height="352" fill="white"/>
</clipPath>
</defs>
</svg>
