<svg width="112" height="112" viewBox="0 0 112 112" fill="none" xmlns="http://www.w3.org/2000/svg">
<path fill-rule="evenodd" clip-rule="evenodd" d="M39.253 23.384C36.6906 23.1106 34.0993 23.3708 31.6424 24.1481C29.1854 24.9254 26.9161 26.203 24.9772 27.9005C23.0382 29.5979 21.4718 31.6784 20.3765 34.011C19.2811 36.3436 18.6806 38.8777 18.6128 41.4538C18.5449 44.0299 19.0112 46.5921 19.9822 48.9791C20.9532 51.3661 22.4079 53.5262 24.2548 55.3234L24.2843 55.352L56.0003 86.7638L61.1067 81.7064L55.0335 75.6332C53.2111 73.8107 53.2111 70.856 55.0335 69.0335C56.856 67.2111 59.8107 67.2111 61.6332 69.0335L67.7382 75.1386L72.8297 70.096L66.7002 63.9665C64.8777 62.1441 64.8777 59.1893 66.7002 57.3668C68.5226 55.5444 71.4774 55.5444 73.2998 57.3668L79.4612 63.5282L84.5525 58.4857L77.2001 51.1332C75.2904 49.2236 72.7005 48.1508 69.9999 48.1508C67.2993 48.1508 64.7093 49.2236 62.7997 51.1332L58.133 55.7998C53.0906 60.8423 44.9092 60.8423 39.8667 55.7998L37.3327 53.2658C35.583 51.5156 34.5995 49.1415 34.5995 46.6667C34.5995 44.1918 35.5825 41.8183 37.3322 40.068L49.5319 27.8683C48.6068 27.0627 47.602 26.348 46.5311 25.7364C44.2935 24.4582 41.8154 23.6573 39.253 23.384ZM58.9884 31.6112L43.9329 46.6667L46.4664 49.2002C47.8639 50.5977 50.1358 50.5977 51.5334 49.2002L56.2 44.5335C59.86 40.8736 64.8239 38.8175 69.9999 38.8175C75.1758 38.8175 80.1397 40.8736 83.7997 44.5335L90.7543 51.4881C91.2164 50.6996 91.6211 49.8764 91.9643 49.0246C92.9242 46.6418 93.382 44.0864 93.3089 41.5186C93.2359 38.9507 92.6336 36.4255 91.5398 34.1011C90.4459 31.7767 88.8841 29.7031 86.952 28.0101C85.0199 26.317 82.7591 25.041 80.3112 24.2619C77.8633 23.4828 75.2809 23.2173 72.7257 23.4821C70.1704 23.7469 67.6973 24.5363 65.4612 25.8008C63.2251 27.0654 61.274 28.7779 59.7302 30.8311C59.5115 31.1219 59.2622 31.383 58.9884 31.6112ZM93.9621 62.3025C94.0679 62.2155 94.1708 62.123 94.2704 62.0252C97.0194 59.325 99.1816 56.0864 100.622 52.5122C102.061 48.9379 102.748 45.105 102.638 41.2532C102.529 37.4013 101.625 33.6136 99.9847 30.127C98.344 26.6404 96.0012 23.53 93.1031 20.9904C90.2049 18.4509 86.8138 16.5369 83.1419 15.3682C79.47 14.1995 75.5964 13.8013 71.7636 14.1985C67.9307 14.5957 64.2211 15.7798 60.8669 17.6766C59.1276 18.6602 57.5032 19.8245 56.0194 21.147C54.5341 19.8082 52.9058 18.6289 51.1602 17.6319C47.8037 15.7147 44.0866 14.5133 40.243 14.1033C36.3994 13.6933 32.5125 14.0835 28.8271 15.2495C25.1417 16.4155 21.7376 18.3319 18.8293 20.878C15.9209 23.4242 13.5712 26.545 11.9282 30.0439C10.2852 33.5428 9.38444 37.3439 9.28266 41.208C9.18087 45.0721 9.88027 48.9154 11.3368 52.496C12.7906 56.0698 14.9673 59.3046 17.7303 61.9974L52.7164 96.6476C54.5351 98.4489 57.4654 98.4489 59.2841 96.6476L93.9621 62.3025Z" fill="#27327C"/>
</svg>
