<svg width="112" height="112" viewBox="0 0 112 112" fill="none" xmlns="http://www.w3.org/2000/svg">
<path fill-rule="evenodd" clip-rule="evenodd" d="M46.6667 23.3333C45.429 23.3333 44.242 23.825 43.3668 24.7002C42.4917 25.5753 42 26.7623 42 28V32.6667H70V28C70 26.7623 69.5083 25.5753 68.6332 24.7002C67.758 23.825 66.571 23.3333 65.3333 23.3333H46.6667ZM79.3333 32.6667V28C79.3333 24.287 77.8583 20.726 75.2328 18.1005C72.6073 15.475 69.0464 14 65.3333 14H46.6667C42.9536 14 39.3927 15.475 36.7672 18.1005C34.1417 20.726 32.6667 24.287 32.6667 28V32.6667H28C24.287 32.6667 20.726 34.1417 18.1005 36.7672C15.475 39.3927 14 42.9536 14 46.6667V84C14 87.713 15.475 91.274 18.1005 93.8995C20.726 96.525 24.287 98 28 98H84C87.713 98 91.274 96.525 93.8995 93.8995C96.525 91.274 98 87.713 98 84V46.6667C98 42.9536 96.525 39.3927 93.8995 36.7672C91.274 34.1417 87.713 32.6667 84 32.6667H79.3333ZM28 42C26.7623 42 25.5753 42.4917 24.7002 43.3668C23.825 44.242 23.3333 45.429 23.3333 46.6667V84C23.3333 85.2377 23.825 86.4247 24.7002 87.2998C25.5753 88.175 26.7623 88.6667 28 88.6667H84C85.2377 88.6667 86.4247 88.175 87.2998 87.2998C88.175 86.4247 88.6667 85.2377 88.6667 84V46.6667C88.6667 45.429 88.175 44.242 87.2998 43.3668C86.4247 42.4917 85.2377 42 84 42H28ZM56 51.3333C58.5773 51.3333 60.6667 53.4227 60.6667 56V60.6667H65.3333C67.9107 60.6667 70 62.756 70 65.3333C70 67.9107 67.9107 70 65.3333 70H60.6667V74.6667C60.6667 77.244 58.5773 79.3333 56 79.3333C53.4227 79.3333 51.3333 77.244 51.3333 74.6667V70H46.6667C44.0893 70 42 67.9107 42 65.3333C42 62.756 44.0893 60.6667 46.6667 60.6667H51.3333V56C51.3333 53.4227 53.4227 51.3333 56 51.3333Z" fill="#27327C"/>
</svg>
