<svg width="36" height="36" viewBox="0 0 36 36" fill="none" xmlns="http://www.w3.org/2000/svg">
<path fill-rule="evenodd" clip-rule="evenodd" d="M16.136 5.63604C17.8239 3.94821 20.1131 3 22.5 3H27C27.8284 3 28.5 3.67157 28.5 4.5V10.5C28.5 11.3284 27.8284 12 27 12H22.5V13.5H27C27.4619 13.5 27.898 13.7128 28.1823 14.0769C28.4666 14.441 28.5672 14.9157 28.4552 15.3638L26.9552 21.3638C26.7883 22.0316 26.1883 22.5 25.5 22.5H22.5V31.5C22.5 32.3284 21.8284 33 21 33H15C14.1716 33 13.5 32.3284 13.5 31.5V22.5H10.5C9.67157 22.5 9 21.8284 9 21V15C9 14.1716 9.67157 13.5 10.5 13.5H13.5V12C13.5 9.61305 14.4482 7.32387 16.136 5.63604ZM22.5 6C20.9087 6 19.3826 6.63214 18.2574 7.75736C17.1321 8.88258 16.5 10.4087 16.5 12V15C16.5 15.8284 15.8284 16.5 15 16.5H12V19.5H15C15.8284 19.5 16.5 20.1716 16.5 21V30H19.5V21C19.5 20.1716 20.1716 19.5 21 19.5H24.3288L25.0788 16.5H21C20.1716 16.5 19.5 15.8284 19.5 15V12C19.5 11.2043 19.8161 10.4413 20.3787 9.87868C20.9413 9.31607 21.7043 9 22.5 9H25.5V6H22.5Z" fill="#DADBDD"/>
</svg>
