<svg width="112" height="112" viewBox="0 0 112 112" fill="none" xmlns="http://www.w3.org/2000/svg">
<path fill-rule="evenodd" clip-rule="evenodd" d="M51.3333 18.6667C50.0956 18.6667 48.9086 19.1584 48.0335 20.0335C47.1583 20.9087 46.6666 22.0957 46.6666 23.3334C46.6666 24.5711 47.1583 25.758 48.0335 26.6332C48.9086 27.5084 50.0956 28 51.3333 28H60.6666C61.9043 28 63.0913 27.5084 63.9665 26.6332C64.8416 25.758 65.3333 24.5711 65.3333 23.3334C65.3333 22.0957 64.8416 20.9087 63.9665 20.0335C63.0913 19.1584 61.9043 18.6667 60.6666 18.6667H51.3333ZM41.4338 13.4339C44.0593 10.8084 47.6203 9.33337 51.3333 9.33337H60.6666C64.3797 9.33337 67.9406 10.8084 70.5661 13.4339C72.0567 14.9244 73.1764 16.7165 73.866 18.6667H79.3333C83.0463 18.6667 86.6073 20.1417 89.2328 22.7672C91.8583 25.3927 93.3333 28.9537 93.3333 32.6667V88.6667C93.3333 92.3797 91.8583 95.9407 89.2328 98.5662C86.6073 101.192 83.0463 102.667 79.3333 102.667H32.6666C28.9536 102.667 25.3926 101.192 22.7671 98.5662C20.1416 95.9407 18.6666 92.3797 18.6666 88.6667V32.6667C18.6666 28.9537 20.1416 25.3927 22.7671 22.7672C25.3926 20.1417 28.9536 18.6667 32.6666 18.6667H38.134C38.8235 16.7165 39.9432 14.9244 41.4338 13.4339ZM38.134 28H32.6666C31.4289 28 30.242 28.4917 29.3668 29.3669C28.4916 30.242 28 31.429 28 32.6667V88.6667C28 89.9044 28.4916 91.0914 29.3668 91.9665C30.242 92.8417 31.429 93.3334 32.6666 93.3334H79.3333C80.571 93.3334 81.758 92.8417 82.6331 91.9665C83.5083 91.0914 84 89.9044 84 88.6667V32.6667C84 31.429 83.5083 30.242 82.6331 29.3669C81.758 28.4917 80.571 28 79.3333 28H73.866C73.1764 29.9503 72.0567 31.7423 70.5661 33.2329C67.9406 35.8584 64.3797 37.3334 60.6666 37.3334H51.3333C47.6203 37.3334 44.0593 35.8584 41.4338 33.2329C39.9432 31.7423 38.8235 29.9503 38.134 28ZM42 51.3334C44.5773 51.3334 46.6666 53.4227 46.6666 56V79.3334C46.6666 81.9107 44.5773 84 42 84C39.4226 84 37.3333 81.9107 37.3333 79.3334V56C37.3333 53.4227 39.4226 51.3334 42 51.3334ZM70 60.6667C72.5773 60.6667 74.6666 62.756 74.6666 65.3334V79.3334C74.6666 81.9107 72.5773 84 70 84C67.4226 84 65.3333 81.9107 65.3333 79.3334V65.3334C65.3333 62.756 67.4226 60.6667 70 60.6667ZM56 70C58.5773 70 60.6666 72.0894 60.6666 74.6667V79.3334C60.6666 81.9107 58.5773 84 56 84C53.4226 84 51.3333 81.9107 51.3333 79.3334V74.6667C51.3333 72.0894 53.4226 70 56 70Z" fill="#27327C"/>
</svg>
