<svg width="36" height="36" viewBox="0 0 36 36" fill="none" xmlns="http://www.w3.org/2000/svg">
<path fill-rule="evenodd" clip-rule="evenodd" d="M4.662 5.32197C4.9175 4.81776 5.43476 4.5 6.00001 4.5H12.4005C12.8783 4.5 13.3276 4.72765 13.6101 5.11297L20.022 13.8567L28.9393 4.93934C29.5251 4.35355 30.4749 4.35355 31.0607 4.93934C31.6465 5.52513 31.6465 6.47487 31.0607 7.06066L21.8169 16.3044L31.2096 29.113C31.5439 29.5688 31.5935 30.1738 31.338 30.678C31.0825 31.1822 30.5653 31.5 30 31.5H23.5995C23.1217 31.5 22.6724 31.2724 22.3899 30.887L15.978 22.1433L7.06067 31.0607C6.47488 31.6464 5.52513 31.6464 4.93935 31.0607C4.35356 30.4749 4.35356 29.5251 4.93935 28.9393L14.1831 19.6956L4.79039 6.88703C4.45613 6.4312 4.40649 5.82617 4.662 5.32197ZM18.5554 16.9299C18.6018 17.007 18.6557 17.0808 18.7171 17.1503L27.0399 28.5H24.3596L8.96006 7.5H11.6404L18.5554 16.9299Z" fill="#DADBDD"/>
</svg>
