<svg width="24" height="24" viewBox="0 0 24 24" fill="none" xmlns="http://www.w3.org/2000/svg">
<path d="M19.9997 17.0005C20.552 17.0005 21.0005 17.4478 21.0005 18.0001C21.0005 18.5524 20.552 18.9997 19.9997 18.9997H4.0001C3.44781 18.9997 3.00049 18.5524 3.00049 18.0001C3.00049 17.4478 3.44781 17.0005 4.0001 17.0005H19.9997ZM19.9997 11.0005C20.552 11.0005 21.0005 11.4478 21.0005 12.0001C21.0005 12.5524 20.552 12.9997 19.9997 12.9997H4.0001C3.44781 12.9997 3.00049 12.5524 3.00049 12.0001C3.00049 11.4478 3.44781 11.0005 4.0001 11.0005H19.9997ZM19.9997 5.00049C20.552 5.00049 21.0005 5.44781 21.0005 6.0001C21.0005 6.55238 20.552 6.99971 19.9997 6.99971H4.0001C3.44781 6.99971 3.00049 6.55238 3.00049 6.0001C3.00049 5.44781 3.44781 5.00049 4.0001 5.00049H19.9997Z" fill="#3A404D"/>
</svg>
