<svg width="36" height="36" viewBox="0 0 36 36" fill="none" xmlns="http://www.w3.org/2000/svg">
<path fill-rule="evenodd" clip-rule="evenodd" d="M18 4.5C18.8284 4.5 19.5 5.17157 19.5 6V20.3787L24.4393 15.4393C25.0251 14.8536 25.9749 14.8536 26.5607 15.4393C27.1464 16.0251 27.1464 16.9749 26.5607 17.5607L19.0607 25.0607C18.4749 25.6464 17.5251 25.6464 16.9393 25.0607L9.43934 17.5607C8.85355 16.9749 8.85355 16.0251 9.43934 15.4393C10.0251 14.8536 10.9749 14.8536 11.5607 15.4393L16.5 20.3787V6C16.5 5.17157 17.1716 4.5 18 4.5ZM6 24C6.82843 24 7.5 24.6716 7.5 25.5V28.5C7.5 28.8978 7.65804 29.2794 7.93934 29.5607C8.22064 29.842 8.60218 30 9 30H27C27.3978 30 27.7794 29.842 28.0607 29.5607C28.342 29.2794 28.5 28.8978 28.5 28.5V25.5C28.5 24.6716 29.1716 24 30 24C30.8284 24 31.5 24.6716 31.5 25.5V28.5C31.5 29.6935 31.0259 30.8381 30.182 31.682C29.3381 32.5259 28.1935 33 27 33H9C7.80653 33 6.66193 32.5259 5.81802 31.682C4.97411 30.8381 4.5 29.6935 4.5 28.5V25.5C4.5 24.6716 5.17157 24 6 24Z" fill="white"/>
</svg>
