<svg width="24" height="24" viewBox="0 0 24 24" fill="none" xmlns="http://www.w3.org/2000/svg">
<path fill-rule="evenodd" clip-rule="evenodd" d="M5 6.00098C4.73478 6.00098 4.48043 6.10633 4.29289 6.29387C4.21971 6.36706 4.15904 6.45042 4.11226 6.54063L12 11.7991L19.8877 6.54063C19.841 6.45042 19.7803 6.36706 19.7071 6.29387C19.5196 6.10633 19.2652 6.00098 19 6.00098H5ZM20 8.86949L12.5547 13.833C12.2188 14.057 11.7812 14.057 11.4453 13.833L4 8.86949V17.001C4 17.2662 4.10536 17.5205 4.29289 17.7081C4.48043 17.8956 4.73478 18.001 5 18.001H19C19.2652 18.001 19.5196 17.8956 19.7071 17.7081C19.8946 17.5205 20 17.2662 20 17.001V8.86949ZM2.87868 4.87966C3.44129 4.31705 4.20435 4.00098 5 4.00098H19C19.7957 4.00098 20.5587 4.31705 21.1213 4.87966C21.6839 5.44227 22 6.20533 22 7.00098V17.001C22 17.7966 21.6839 18.5597 21.1213 19.1223C20.5587 19.6849 19.7957 20.001 19 20.001H5C4.20435 20.001 3.44129 19.6849 2.87868 19.1223C2.31607 18.5597 2 17.7966 2 17.001V7.00098C2 6.20533 2.31607 5.44227 2.87868 4.87966Z" fill="#B5B7BC"/>
</svg>
